<mxfile host="65bd71144e">
    <diagram id="mOSGainN5lEwQoeQlzc9" name="Page-1">
        <mxGraphModel dx="1703" dy="470" grid="1" gridSize="10" guides="1" tooltips="1" connect="1" arrows="1" fold="1" page="0" pageScale="1" pageWidth="850" pageHeight="1100" math="0" shadow="0">
            <root>
                <mxCell id="0"/>
                <mxCell id="1" parent="0"/>
                <mxCell id="24" value="" style="edgeStyle=none;html=1;" parent="1" source="2" target="23" edge="1">
                    <mxGeometry relative="1" as="geometry"/>
                </mxCell>
                <mxCell id="2" value="Login" style="rounded=0;whiteSpace=wrap;html=1;strokeColor=#3333FF;" parent="1" vertex="1">
                    <mxGeometry x="-440" y="410" width="120" height="60" as="geometry"/>
                </mxCell>
                <mxCell id="6" value="" style="edgeStyle=none;html=1;" parent="1" source="3" target="4" edge="1">
                    <mxGeometry relative="1" as="geometry"/>
                </mxCell>
                <mxCell id="34" value="" style="edgeStyle=none;html=1;" parent="1" source="3" target="33" edge="1">
                    <mxGeometry relative="1" as="geometry"/>
                </mxCell>
                <mxCell id="3" value="Menu de Games ( MenuGames )" style="rounded=0;whiteSpace=wrap;html=1;strokeColor=#3333FF;" parent="1" vertex="1">
                    <mxGeometry x="-130" y="410" width="220" height="60" as="geometry"/>
                </mxCell>
                <mxCell id="11" value="" style="edgeStyle=none;html=1;" parent="1" source="4" target="10" edge="1">
                    <mxGeometry relative="1" as="geometry"/>
                </mxCell>
                <mxCell id="36" value="" style="edgeStyle=none;html=1;" parent="1" source="4" target="35" edge="1">
                    <mxGeometry relative="1" as="geometry"/>
                </mxCell>
                <mxCell id="4" value="Jogo ( Game )" style="rounded=0;whiteSpace=wrap;html=1;strokeColor=#3333FF;" parent="1" vertex="1">
                    <mxGeometry x="130" y="410" width="120" height="60" as="geometry"/>
                </mxCell>
                <mxCell id="15" value="" style="edgeStyle=none;html=1;" parent="1" source="10" target="14" edge="1">
                    <mxGeometry relative="1" as="geometry"/>
                </mxCell>
                <mxCell id="17" value="" style="edgeStyle=none;html=1;" parent="1" source="10" target="16" edge="1">
                    <mxGeometry relative="1" as="geometry"/>
                </mxCell>
                <mxCell id="10" value="Apostas ( Prizes )" style="rounded=0;whiteSpace=wrap;html=1;strokeColor=#3333FF;" parent="1" vertex="1">
                    <mxGeometry x="300" y="410" width="120" height="60" as="geometry"/>
                </mxCell>
                <mxCell id="14" value="Valores que o usuário vai apostar" style="rounded=0;whiteSpace=wrap;html=1;" parent="1" vertex="1">
                    <mxGeometry x="290" y="550" width="140" height="60" as="geometry"/>
                </mxCell>
                <mxCell id="19" value="" style="edgeStyle=none;html=1;" parent="1" source="16" target="18" edge="1">
                    <mxGeometry relative="1" as="geometry"/>
                </mxCell>
                <mxCell id="30" style="edgeStyle=none;html=1;entryX=1;entryY=0.5;entryDx=0;entryDy=0;" parent="1" source="16" target="29" edge="1">
                    <mxGeometry relative="1" as="geometry">
                        <Array as="points">
                            <mxPoint x="575" y="330"/>
                        </Array>
                    </mxGeometry>
                </mxCell>
                <mxCell id="16" value="Finalizar Jogo ( ConfirmGame&amp;nbsp; )" style="rounded=0;whiteSpace=wrap;html=1;strokeColor=#3333FF;" parent="1" vertex="1">
                    <mxGeometry x="470" y="410" width="210" height="60" as="geometry"/>
                </mxCell>
                <mxCell id="18" value="Escolher o dia e horário da aposta e confirmar os valores" style="rounded=0;whiteSpace=wrap;html=1;" parent="1" vertex="1">
                    <mxGeometry x="515" y="550" width="120" height="60" as="geometry"/>
                </mxCell>
                <mxCell id="26" style="edgeStyle=none;html=1;entryX=0;entryY=0.5;entryDx=0;entryDy=0;" parent="1" source="23" target="3" edge="1">
                    <mxGeometry relative="1" as="geometry">
                        <mxPoint x="-150" y="431.0380205190104" as="targetPoint"/>
                    </mxGeometry>
                </mxCell>
                <mxCell id="28" value="" style="edgeStyle=none;html=1;" parent="1" source="23" target="27" edge="1">
                    <mxGeometry relative="1" as="geometry"/>
                </mxCell>
                <mxCell id="39" value="" style="edgeStyle=none;html=1;" parent="1" source="23" target="38" edge="1">
                    <mxGeometry relative="1" as="geometry"/>
                </mxCell>
                <mxCell id="23" value="Menu Principal" style="rounded=0;whiteSpace=wrap;html=1;strokeColor=#3333FF;" parent="1" vertex="1">
                    <mxGeometry x="-284.25" y="410" width="120" height="60" as="geometry"/>
                </mxCell>
                <mxCell id="42" value="" style="edgeStyle=none;html=1;" parent="1" source="27" target="41" edge="1">
                    <mxGeometry relative="1" as="geometry"/>
                </mxCell>
                <mxCell id="27" value="Perfil" style="rounded=0;whiteSpace=wrap;html=1;strokeColor=#3333FF;" parent="1" vertex="1">
                    <mxGeometry x="-284.25" y="270" width="120" height="60" as="geometry"/>
                </mxCell>
                <mxCell id="31" style="edgeStyle=none;html=1;entryX=0.5;entryY=0;entryDx=0;entryDy=0;exitX=0;exitY=0.5;exitDx=0;exitDy=0;" parent="1" source="29" target="3" edge="1">
                    <mxGeometry relative="1" as="geometry">
                        <Array as="points">
                            <mxPoint x="-20" y="330"/>
                        </Array>
                    </mxGeometry>
                </mxCell>
                <mxCell id="29" value="Carrinho" style="rounded=0;whiteSpace=wrap;html=1;strokeColor=#3333FF;" parent="1" vertex="1">
                    <mxGeometry x="190" y="300" width="120" height="60" as="geometry"/>
                </mxCell>
                <mxCell id="53" value="" style="edgeStyle=none;html=1;" edge="1" parent="1" source="33" target="52">
                    <mxGeometry relative="1" as="geometry"/>
                </mxCell>
                <mxCell id="33" value="LIsta de Jogos que o usuário pode escollher para jogar" style="rounded=0;whiteSpace=wrap;html=1;" parent="1" vertex="1">
                    <mxGeometry x="-80" y="550" width="120" height="60" as="geometry"/>
                </mxCell>
                <mxCell id="35" value="Números que o usuário vai jogar" style="rounded=0;whiteSpace=wrap;html=1;strokeColor=#FFFFFF;" parent="1" vertex="1">
                    <mxGeometry x="130" y="550" width="120" height="60" as="geometry"/>
                </mxCell>
                <mxCell id="38" value="Contém opçoes como ir para o perfil, jogar games ou sair do app" style="rounded=0;whiteSpace=wrap;html=1;" parent="1" vertex="1">
                    <mxGeometry x="-284.25" y="550" width="120" height="60" as="geometry"/>
                </mxCell>
                <mxCell id="41" value="Página onde o usuário poderá somente visualizar suas informaçoes de login" style="rounded=0;whiteSpace=wrap;html=1;" parent="1" vertex="1">
                    <mxGeometry x="-311.37" y="110" width="174.25" height="90" as="geometry"/>
                </mxCell>
                <mxCell id="43" value="Números que o usuário vai jogar" style="rounded=0;whiteSpace=wrap;html=1;strokeColor=#FFFFFF;" parent="1" vertex="1">
                    <mxGeometry x="90" y="150" width="120" height="60" as="geometry"/>
                </mxCell>
                <mxCell id="47" value="" style="edgeStyle=none;html=1;" parent="1" source="44" target="46" edge="1">
                    <mxGeometry relative="1" as="geometry"/>
                </mxCell>
                <mxCell id="44" value="" style="rounded=0;whiteSpace=wrap;html=1;fillColor=#3333FF;fontColor=#ffffff;strokeColor=#001DBC;" parent="1" vertex="1">
                    <mxGeometry x="-620" y="220" width="50" height="30" as="geometry"/>
                </mxCell>
                <mxCell id="45" value="Legenda:" style="text;html=1;strokeColor=none;fillColor=none;align=center;verticalAlign=middle;whiteSpace=wrap;rounded=0;" parent="1" vertex="1">
                    <mxGeometry x="-650" y="180" width="60" height="30" as="geometry"/>
                </mxCell>
                <mxCell id="46" value="Página (Screen)" style="text;html=1;strokeColor=none;fillColor=none;align=left;verticalAlign=middle;whiteSpace=wrap;rounded=0;" parent="1" vertex="1">
                    <mxGeometry x="-530" y="220" width="130" height="30" as="geometry"/>
                </mxCell>
                <mxCell id="48" value="" style="edgeStyle=none;html=1;" parent="1" source="49" target="50" edge="1">
                    <mxGeometry relative="1" as="geometry"/>
                </mxCell>
                <mxCell id="49" value="" style="rounded=0;whiteSpace=wrap;html=1;fillColor=#FFFFFF;fontColor=#ffffff;strokeColor=#001DBC;" parent="1" vertex="1">
                    <mxGeometry x="-620" y="270" width="50" height="30" as="geometry"/>
                </mxCell>
                <mxCell id="50" value="Descriçao" style="text;html=1;strokeColor=none;fillColor=none;align=left;verticalAlign=middle;whiteSpace=wrap;rounded=0;" parent="1" vertex="1">
                    <mxGeometry x="-530" y="270" width="130" height="30" as="geometry"/>
                </mxCell>
                <mxCell id="52" value="" style="shape=image;verticalLabelPosition=bottom;labelBackgroundColor=default;verticalAlign=top;aspect=fixed;imageAspect=0;image=data:image/png,iVBORw0KGgoAAAANSUhEUgAAAdkAAAI8CAYAAAC9JtGuAAAgAElEQVR4Aey9XVBUV97/+9S5OTfn4tycm3Nxbs4N1YCGMbYSNYB0RKOEwPiKiEgYlCAvtgYhxPGvUQfER42k1GHEkgqSCVbEKcZ/OCbM/+mUAyYzjy8nls4YzeMUxMmkNf80U6np5OZ7ztpvvfbu3U030E13872gdrNf1stvfdb6rt/aa6/1b2kL92GTuwNLHE6kKX8lcG3vRVGeE8HXtHuCntGf1Y55HagsrVXCyyrsMn4r4VueXVLai02FJcFxG+mxhG173oXsdV0o27ADDtvrahj/S9sd6H//W2M//m/nKvxfy7fgf//FGeVP/P9/FjYqv8V9qj1Cxy/yFki7bq9eVLp7Ubl9H7L0tAh7GP9L9tWuG+FYbGM6bzxfiyIRvvSnlJUelxKGuN4F10L7tJtt7oT1/8nyrV7PRtaqUyh7rSWQTz0NyvF3KPvDfyHP+D2Bbb0/YvfVp6i6DOz+fyaw4a3zmL/Aep/+jJR2iSc1btkGErsW+1nzZbKnxLzpvGFntZxkO9uXdWg729pxfhVWb+/G6tzcSflKc9Sh584T+L68iv0FTqQVdODTvzzAZ8NXcPnDj3H7b0/hn7iLy+5XwoZlsoOJRWFjkU8tDxb7ifQL2+h1WcmPdE/QNVHWUlkZdjVxodUTxc7BdSHwvChjqWwdKqd6eejMm/Im4hHpM8rQkj+HCNNSXlHkx7Y8rXnj/2FZnIs2/Dc7IRXg6hAr0CsNugS8BKZhNFG5pIZfr5jBFdFceYIqiVIRVBEx0hAWXCGw3SgrrUVG2PuchsDqQisE9f/YdEg5r4uu/n+kIqvn07CDSIOlogflUWqIxHNyYxSwvWQnU3jS+XD5VcpIKkfp3qD0KA2tanOTkEjPmPLn0AS2ah+y0iUxNN1vFc+vkb/gVSz69wnUnjivdIYcK89jxbtP0fjRX5CtPCs/I4UbJAz6NbMtglgz2S1aO0viY8qXHrd2DGNns82cSBMCu6MbRXmuCBoiG4H9egLeP13B5es3cf/uDXxyoQPlQnzDpU8TJ6NcrfVUq7NKXVPyItVzO5FV6qd6j8ytkQbJ5rbXRVoN/oM7MkobooikKFuLIGr5DNQRmw6iFL+aJrkc7cIMMGSbXi08I3+T2Jr3Tc7jXLPR5CKrQyU3dNbKKF8zVSKbnrBUSYWxgxt8vZDsKoR+TT9GLrAiLl1c9aMssuKcEFjdm41EZO06KApApoou8mH2PNXOSKABMVVu7dklspccFJ65IQwJrdGY6fZSj6FtbuNZ6OVvHCMRWBGPLJiNePHdCez+ZALbPvgR9Rf+X6x7/0fFmy1r+x1+tkBPn/yMfk4cQ7EQaCBVj8zOzoGORnR2lhtnOS02v0PY2VQuMyGw19/Bq0Y52KQjxDVTeYdLq7VeRyCyQZ1MKXyTvY20yYyFt7Ep3cbzapuhd8CD7jHVFWEjOQ4bjqT7RXrD5cdUnlJ6eD5yFueirSIXWbkCyr9tKqIAX4c1GFy5YQwnsnJltCvE6ARWFK4urvpRFlnhyYphY92jjUhkjSEsi+hNVnEtnQtzY6Tm2zTcK4WnCo4lPqXCl8BVKg1R62lThu3NtgxqmKQGI9y1tIg8WL2sggXT8eoQNlwBdl/9GiX178AxX79XPwY/o1dKhaMgz0ZiSTTupmFCNUyZv+jsLDfOevrEMZyd5fuk31EJbCmOXTcPEX/yt6fwTlFghf3MZSpsFuh46PZVjpZ6Lc7J9lPvlWyu3C+HZebMbG/NdtsDbYMRvk25BdIjv05SbSryE1JkLR0yJf0GN2re9bZJ75gZXv4k+VHzL5WrVG94jXYJxUB4kRUNl+GFBTwvEZgAXVxTAdWFQT1XVBrmnazFk1W9QfGcEA6tEmhxGvDbwOxY1oZNEQwRyxnXxVU/yiIrBFa8nxWerPgdqcgq4ZvsJPKi28rc6MhpUYfhVbEMaowkb0B5JkhkVTsbZaM3UtZ0aO/F9cZEb5jMNjeXXaABsqk0C5qw7rVwQ8TyM71Y9xHwxh/En817VlOZCnHV7jWGjuWwtN9aI2jkWxILs5BIzyrPqOURnZ0tdlGY1Do3Ie0sxWvkbxkWreuKcIjYifL+u/B9/TGO6O9gxRDxNARW8BNkG6sddX6U8+YOnCJSBkcif5LIijxawjIY0wXaaD+0tkHM9TBso/7W2xK9XOUwdHb1a8pRSk9Q3izxbiqsDbxz1gW4UGrXpLCMuial2ZyW4LRb88L/aSMrA/9mPZHK/+viqh+F1/q/vjUc5OHq11PZFsxbYjYGu649hu9mN/LXvoNPvxEC24F8iyix7KZadqKDoHeApxoGnyN/0TEwp0SWcEQHB+01C/aqPINPv56A3/8Uj65RYGeWQYrszNpzFupHEnY4KbJJWGisKKzcZGAqDFBkyc1UuJneMxRZimzQOzJWxOlVKtqP9iMDZEBngCJLkaXIkgEyQAbIQIwYoMjGyLB6L4ZH9mjJABkgA3OXAYosRZY9WDJABsgAGYgRAxTZGBmWPde523Nl2bPsyQAZ0BmgyFJk2YMlA2SADJCBGDFAkY2RYfVeDI/s0ZIBMkAG5i4DEYms3dJl4lzslhwT37NZwpeXsrMuhRatUNosH5eqlSBoKUGrrRRbxHYVnEnTYE1TxP9r3z2utFm32Lo0ZcRhhlkKM+Iw5m6Dkqr1iPki01NlICKRVdYn1dc3VRqaWhSZ/p/ZAlDWS5VF1iSKCdIITrkRn1lbTVbwoQVOW5t3eweK9P1EZ0pELLYJnYbp2SIQrsiLuaOwpNT8/2R2Ml0XvMWQb1NcM2VzhsPhTjKQkAxEJrLaIuO65xpo3KbXSNo3NqqAuyRPOSg+SyNuH04s0iaFmQhpiKBSBdku6JlggZq2PS22mTwNkl2D0hfqmki3tJi9HOe0RTIGNok4X6Hyy/PT5pJlkJAilOrlGrHIKrvGKL17MUQXaNxMO2hIvX/rcLL1/1CG1e/Tj+I++bfyXIhGVG3Mxa4b6o4fyi4+ovHVdtXQOwkmz1wLS+zfqt4X8ICs8Rr/S2EGdtwJ7EwkwgnsIKQOfVvDDuRfNOjSrjqmoXD52Q645D1mpY3WlbBNzwUa5MkFbhJBCZNXw55yGdncby0X85Z0ofOv2LtwHzaZ7KnlLYgBbeh4oYUXcZ/drirW5y3/T263gI0DZclztAUZIANmBiIXWW3z46LSLkNARCMob40mGib9f0OQtN6j9X/bghANtCYW8v3yb+U5S4Ooh6XEb+yyoQmULj4ibL0TID8vfkuNeMR5kNIq4jenMSBc0TXWgef0Lb6sYq3+rwpT4Joav/y/bBO78/p1NZ5AxyJw3gyKcl7Kszm/lvxL94nnzOWipl0V6PD5EHEYZWb1Qixx6PFsKu0IDPUqZSvnLSDEpo6WCFtmQvxvE35Y21jTx//pNZEBMuBwIgqR1Roew4sVDWTAo1UbINGIqefCNsJ28FkaOfl5+bcSj+VevfEzC5pIn9TAys+E+i3SJV2zxmv639QIq2KheqsBr1QREnGf/H7ZLu/aPfrzqgAFbBmcP5t34lK69fvF0WwTG+HUOk+uhXbXxDlL3rSOiskW1k6GyTbBaQikKXw+rHHI+bIXQbVjZXjYeR1Gh1B/1ojbai/r/5Y86M/zGIoTnicbZMCOgehE1tQQzazIigZVFxn5KLwwo2HUBSpEA2i+L94iKwm6nk7pqObP5h6RF93DlsXKZGsV3kD+wouTXNCBZ0JVAIudpDTrAmuIlpQmqwCa/reUjzUNgf/D58MUpildoTxNS14osvQkrNzwfzIRZwamIbLqEKE+vCsadtF46v/Lv9McFg8jgkyaGljRuJs8aMvnPVp4gcZbCIqlwZUEQvZWTb9FONJ9YfNgERKRXj3vssjJv83pCwhn4DnZTiL9cj7Va+rQr3pNHgYW8cv/6/HaxalfU48WO5nKRsQZ6Bgo9tA6BNHYxpqGwP/h82FiwJQuczkF8mPJi8JNIP0qh/r/ofMmwgukMVTnhOcDdqctaAsyEIqBaYms7ukYnqfkkenCql7rQJE0WziSzyusDazSqGsTWOzEJLhhtGlw9fRJQiqLqmIk+ZrWObDLQyB/eqOtCoZhC61TIKdb9lgDBaKKp20cikjoHr514pP8XGiBn1wsLHayiJmcftP7zihsY02D+f/Q+bAyELCZqNDiOevrCpu8iM6Q3cQnvVOoMyW/y7V20Cw2MaeDjQvtQQbIQGgGohPZGWlsSuAq3YesGQkrdMZSsdDDi469LcyCZn9PstoqZnkzdbRSy2bJWtZMNzlMVgbiL7KiAdNn/FJoI38/oni1Vs9t8ooXMyFKiLIT3qw+kjC5LSKrpOqIhPEeOiHyOVN5YziRMUA70U4zx0D8RZaNVsTCKjzXwFDn1MQktUV25ioCGxXakgyQgVgwQJGl6Ecs+rEAkGGyYSMDZCCVGaDIUmQpsmSADJABMhAjBiiyMTJsKvfMUi5vBYdx+eZjeL97ivHrHWxsWCfIABmYMQYosoRpxmBKVvHdde0x/N6b6DnoRnkBh+6StRyZbrKbiAykrsgu7MSYuw+XUkVE8/rgrz6L9mnkZ8nL/4Fzh37EcOePGH7nR/z+zVFUPm+tmAfx9kFxz9/xy0Xma417xflnaMvTz/fg9HFx7gEa9XTljGJAhG/5u7CuSBPzIuS++p+42K7dI9Kx/ws0LtWv62HH71g++AD+L68gX88Dj3O+45WIjTXTFL82YSZtnboi6zwHX0t/6ohsfj9Qd27KIut89QGG3nmGcxuOw5nhRGbWQVRXf4G3X9psblBf+A/0H3+MC7/8Ef1bW6VrrfjlgWcY+JV0fukoBjr+id8HiawkulbBeuk/8fvOZzhVeFD5VlpNx2MM7P4QS6z3xuv/vrvwez04Eq/4GI/EVXI2nDPZCDOs1GYgCpHNwZ7lffDtHgFaRoDGAYwuWx+oLPOPYmyPB2Mr9HPrMVjhgX/rYVTrjYoQvrpzuLiiH7431HD8lZ1oT5eMnL4ZFzcOwd+kXa/pw8WsnEA8jsN4KOJvGcaoc71yL5rF/4PwZIlwajBapz6rpFO5dwQoOyyFIcWnp83umF6Fwc2BtKDBkmeHCycLB4y8iOuebJcUj0hrPwafP4qHtVqaGvsxuECO32LXJg98W8/ivJFnPb/mPPmKqqR45PDsfr+Lf2//Ef3bDk76zEvb/o4h9/t4aevfMfzWNTgNuxxH25EfcfGXf8fw7g+VcDLXPcZQ4xc41/kMby/V4lU82dAiu2rb3zF8ZBRFRrh26Y3zucMeeH+4ia5EShPTMimrFKc41xMyOSUmIxZZ15Ie+HcP4NriQrgcLrTm9MDXPIDBeYGCrl45COzuw/l0J1w5ffDv7sel+YHraUJkm0fg33oUrRlOFC84jrE9I/AWVhiJby8eBup6VJFJ34zzG8T/Vg9OFVLvLwbhKz2M1gxVzExDw9P2ZAtxqcwDvK6npRCtOecwmq93IpyoEN7lnkFcWyiE1YWDawaBPf24ZNhEpMsD/44+XFrgQlp6FUZrRoBSyUPM6oS3eRj3lm+Gy+GEa14VLhafM9tNwD0dTzZPDOEGD/8GN1LCW/0Rp4uKkLboP9Df+RhvKh0XUYZCZJ+hbYPwXv8TWxxObKn9Jy6WXlNEti1HK+dJRDZN8WT/iYvV7+MlmY0oK/ClreZOh9qhmsrIxSvY9eED+CmyRh0M5kKqw1GWE8Oi7eY6AxGKbA5Eo+YrrpEqYiGuVY5gbGWhdK4CnuoR+NYex70G2avVQFOEbwCDkud6Zr0HqO7EHqXytuLenhGMrZA813nHMdbiwa0lMqyat9rQg5PKcwdwr7EPF+UGYLoiK8SvZRi3suV45d+b1byW1Ev534tbjbJNhMgOY3Rx4DmlE7FV8qoXnoWvZRj3lskecOB+A9DpiOzaB6b3pj/f8SzwznSv6pUq8QhhfecBGjNE/KrgXizdoeVPvH99hrYccRSC3Ya3DwkP9kMbkbW8k5XjcBQhd/UoLoh3ssr72Ad4Wxs6NvIql2Msf/ffhd8/Ab//CW7/ulkqRxv7xzIdDJu2JwMpy0CEIhtiCLbFKrxOpC04C68Yot12NDBMrANkI3wVwvvVPVVN2EadciOnCtfDfPmc5slKHnBQA20TV9A9errsjkLUwr7TVTsE5nSpHY9AZ0QTWSk/QSLryEH7mkH4xZB3wyAeFh9G+zypk6GnbQZFVrdDUfUzDEsCqAwR7/0QmVqc5iFjXUyLICZAXdjwe1xQPFpx/kecLtTKZzJPVs+PowjOF36DN+v/jt+/8yOG9s7GO9lSVL1xGD1/egL/dzdwzEibzBp/67zwSBbIQPQMRCWyZq/VPrLqFQPwuz3w7xnAoHU40Eb4piOyZoGzpMcmrqgAiZvIaunOKMHJnOO4VeUBmodg7mhMc7h4hZhsFDxcbBbZHXjzLYsHqsxCfow3lCFjXWSdyvvaoSPP8HtFkNV3tefWavmIWGQD5ZX58hfKZCjjvW4EYjdzw8VOpIl3sv67eD+CeKNiiOGlrHdCDgL1l7YIb4sIRVYdLsbmA8p7w5BGVSY/DePWks3Bk55Eg2MjfMpwceVxVCgNUnTDxZOLrHloOmS67RpDJa1iclUoA0YxXCyFEezJWsOvx2i9zQiBEP1667tp67Mh/s94X/nU5sImfehXvc8kslnXcFEI8YuteGmR/vcb/PuRH6E8p72jVYaSFSHVZxlPX2TTlPDEUHSI9NuVz0yea/PAy9nFFMSZZIphkSeNgQhFVpvIJN4d5leg2CEmLbVidGOn9EmJNpu4tFUV4vnHMdbswUNpopAqsh6MrapHRboTxeJbVvEOtiDwXvfkuuHAZKOMCgxuVd/ZtpqgVYeLw4ps+gHcE7OdC8SEohxUPF+FPdK74MkFd73yztmY+KRM9joLT5408algABCTwcTEp/RCnCkZMiZ+qeFPPlxcnH0ODzfoQ8Q5qFh8Ft5ms02UsJRhePGOWJ1kVb2wIng43mQjs2AVvfYMw8ce4828HcpwcNbz7+KNvf80houdpY8xfOA/8JIlDDG5SQwpZ5o81M1YsqgVS5SRCvFuVhdcJ1TBDDW7eAdqd/8TA7t/j43Pq58OiXS8+eY/Z3fGsXg3S5Flo2hhf/I2wlzHeD/tYcdAxCKb5rB8avLGMLwbj+KgJlximBhiNrExs9aJVjHbVp5hrHiHg7i3cQjKZzfNI/BtPGAWC+2zGfWznBH4K8/hvGnYWQiXPLM09IzS6ry+wOc1u4dw68VV0TUkGTXKJzxGWmoG4HlRnQWsGnM9zhcPGJ8boVZ8riO/T51cZNPm74Vnq/SZ0O5hjBXvNdtEqfzi3a0UV4MQ92ig3oyNZQ8wcFJfBOKfGNj/Bd7Mb0CaYwfeePNHDFQfD7ZP4RcYEpOhlBnK9uIp3tEaz2pernUxCv165qIevL33GYakdPTv/Q+bRTGiydv07lVWfPrLB8F5Z6NLm5ABMjBNBqIQ2ek1ZIoo2QwX2yk/z82AracJxlwqA2XFJ+8NHNPfK9N2bFjJABmYIQYosjNkyLkkSimX14IOfPLVU+VzHi83CGDjyjaBDMwgA/EX2Tcs37POYGZSrvGnbVjZyQAZIANJzUB8RZawJDUs7MRwGJ8MkAEyEB0DFFkKP4WfDJABMkAGYsRARCL7Yu7LLIAYFQB7hdH1Cmkv2osMkIFkYoAiS/FkB4oMkAEyQAZixEACiGwJlhRsQ2ZUC0WwJ5dMPTmmlbySATIwVxmYfZHNaUN5zQEsiFEvYq4WLPPNRo0MkAEyMPsMzLLIrsby13pR/NIk27xRgDmUQwbIABkgA0nIwOyKrObFLrQZKs4q7ELl5towUJXAtb0XRfnZYe6Z/V4Me5IsAzJABsjA3GVgFkV2NXK39WLdqtW2Ipm56jQqS8OJrPp8Ud7cLTxWXJY9GSADZCCxGZg9kV3WhvKdbVgke7HLDqGsugOu/C3IdHWgsrQBmS+4sXJLFzYUbVLEeNHabmwq3YelL6zG0tJeFLlWY2HBARRXd2HF4sQ2NisDy4cMkAEyMLcYmCWRdSFnSy82vGzxYrM2YWlhG9bVXEClu1f5q9h5GsXFTVjkzEWaIxuZ2Q1wbTyF0gb1uriv/LUTWPlyFbIyOXTMCjy3KjDLm+VNBhKbgdkR2cUHUFrXhmzZi5VfaM+vRdHOXlQ0XkBRnv2kqIy8DpQ39qJiZ4e2r2liG5oVgeVDBsgAGZh7DMyCyOZiaZmNF2uIbAlcVb0oX1eFjNwOlNedwFLTfrJOpC1swYZdF7B6mQvZGy+gfHMtMozn514hsuKyzMkAGSADiclA/EVW8WI7sCTT3iAO8V62Vn9Xm4vsjd3YpL2PVSFaBvFetmxdlTphKnMHXqnl+1hWMHueaBfahQyQgdlkIM4im4slpRdQWqxOYgqZ8XTp3ar82/BWs5EmDzXb3kOwQtrXsCNtRBuRATJABmLJQHxFduE+bNp1AktDeLGxzCjDZkUiA2SADJCBeDMQR5HNRvaGCLxYelm23w3HGwzGx8aIDJABMjB9BuIossuQsXgLFlgnMVFUKapkgAyQATKQogzEUWSn3yNgr4o2JANkgAyQgWRigCKbor2nZIKQaWWjSQbIQKoyQJGlyHKYigyQATJABmLEQNxE9sXcl1mIMSrEVO0BMl/0bsgAGUh2BiiyFD52fsgAGSADZCBGDFBkdcOmu1AsL3Chn+cx8StfRgme+1mK9fgzliW+3Vk3WEZkYFIGKLI6JM5z8LX045L+fwIez2/0AO4enI9p2lpxb/cI/OtbJ4Vn1odx0ldi0csd2NTYi9KfV8ExRbtkrjyFysZTyMlKHKHOKuyaZD/lxEnrrHMwxXJnuslQPBhIQZF14WD+OTys8QAtI+pfwwBGX9wMV7jKmAQi2/7KIPzVZ9EeLh/hri3sxJi7b5KORA081R54X6lJeJHNcB1CUeGOaW9x6Mhtw6btbchOoJXIYiqy6VVY/fop5C5gIxuPRpZxzG3OElZklUZmc22UDf0qXCwV3t4gbuXXozrDibT0QrTm9MDX7MHD5YWhw0sCkZ12ZZ0LeQzXyUiia7EU2cyXT6PytRZkJpE9ps0+8xq67aNtYmqbhBXZzFWnpzRc5lrsxkkhrhZwqlcNAg09OKmfT6+Hp3JY9XTfGMLDkv6g4WJX1gHc0z3ipmGMFe9Ftf68OKZvxsWNQ/A3aR7z7iE8LGzFHtO73fU4XzwA3xvSPSuqAl61InziWj8uyWna0xcYFs7vD3jlLcMYdVrzdxgPW/pxbdk5jDVq8dT24aKxulYNRuu087p3L45lh012urRVuqfunK3HXJx9FmMN2n1vDGOs0I1iySYijIcrqjC4eQhoHgGahvGwoMIUj7VsTP/ndaCy1I0lG7tR6e7FhtVVWLpZ/11ihPNcfgc27OxV7qncdQGlW5qQJdvduQ+b3F1Y4dQ2m0hfjxXbe7GhcL0RRppYS9utheHuRVGebNcSuLZ3YUV+CzY09qKytg1Ll+0zfster2NxC4prLqhpaehG8cuboh+6djah+HU1LRXVbVix0TpcnI3M3ENGnitePwHXEvu9lk32lMpGOZ++BStrLmB1jrQJh/Ue/h9ghLagLabJQGKJrNjmrroDrvwtyHSJxrYBmS+4sXJLFzaYtruTG8MIf887jrGWIYwuFPfn4LzweF/vwfmsHKRlVGBwqxhelt7Jpu/FrQYPxlbVoyLdieIFrbhXN4KxgoA3vGe1EO4+XBRhOHJQ8XwrRosPm4S4vWgI2D2AawtFg+hCdfZx3FpTHxBZpQCFSA7D+4theAvdqFh8Dj47kVMEOZTIjgA153BmXg5c89y4JUR18wFzPBF6su3Fw4Bd/PMO4+EeD8bW1CjCWiyGn/d48DA/YBMhsn73EO7lV6DYkYODIv9yh2EyYIXINp6Ga/EypOWfQOWuLqxcuhIOcX77PmTpz/+sBAuey1UbgMwtioCad3fKxsKSblRua1I8NtFpq6jaZxZiPSxHLYpsRbYXZRtrkSkEekcvysua8FyGEF9JkDNrUVR3AcWrShRhdTzfhOK6CyjK09JmxBGGUzF8u7MXG0q2ITPdCcfPGlAkOhCl0kjOCwdQuvMEcpwi3GXIXHZoSpttOFwnzHaMJH28h0JDBqbMQGKJbNYmLC1swzrdK3D3omLnaRQXN2GR0riEaagMCHKwZ3kffG7hRXngq+zBReXdUyvu7RnBw3zhgR7Gw2bxW4ijFqZFgFzCe7QITcXKQaDyOCq0ZxQBaejBeRvPWQ1XjVMWZiM+PV7lKER2BNh2VA1biFdVJw6a7nEiLazIDmN0ccA+Slqt4mbJo31anAglsnvWDAL1Zg/3zHqPySZCZH0l9SHtGipO47wspvJv4XXKImuxje3wqiJeF1C0qgXFuySv1vJsWhiRVb1bs7AuKQ2IrDLiskMSf4dTFfct7si9WZHPXR1YInni5vxkQ8S5qTDgyac5cpGzpRfFL0Uh5o5NWFnTi2KX9ozoxMhCHmSXAE9G+fCeANu0BW0RAQOJJbJ6gufXKj35ikbhEUQ5JLagE96mIYwuWY/q+Xtxq14TVoc6ZKqIrJ1YWQRIERp5aFX/LQuvGN6t8ijDor7qfozmq16v0SDZxaPn0XQUIuvBvTxJ9E3X5Y5AKE/Wcn5JD/yyZy7Cs+TRSKclrlAiq3j/W81DzIqYSzZRRLZYmjQVYZxGWmRhlX9bRTZrG5aXnkZZrTZMK4Z97QQjpw3l7l6UvhpuD+PQnuxkIrto3YWgeB0vnYrKW1QE1dKBMIusKvJi+Nz6Zxbe8KIoRgPKaw5goSbm5jjCP2uUj4UVnqfdyEB4BhJQZEvgqupF+boqZOR2oLzuBJYa7xbDZ0YUtuJdGt6mJKxTEVkjnPDxFs+vx8VVPRgT3vPr0uzfqETWIpJ2jVnI8NThZtO72lQWWciBxNgAACAASURBVG14tbzMjQVZK+FId8JeMLKRVdSF8tpuVfQkT9HcMCSHyEbntQYzK7xhq0ir/3dgiR1vPEdPjQxMm4GEE1mHeC9b24ZFSoOYi+yN3dgUxftYxQszvK0QIqu8n/XgXo7UEIn3oJLnpwwX7+nDxZANs/SsDqIShiSWdsPS+r2mo41Imq5rcUUhsoqH2diDM3I4yvMDGJwkT6E82YiHi2PtySoTlrrgUt6vq7axFVkx+WmX+P7VZtKTbJdZHi5WPN+6NiyS0iQ6BwHPXB0uLt9QNe0KL3cubG0mpUG+l79t6jttNaM8pipjCSeyiqHTpZmP8u8IoI5IZB2FGNwmvM5zykxkMVFotEbMmJUnPmmLMmw+jFbxzjWjAheL+3DNmNnrwsniftzTh4jTCyG+Y0XzAAbn6RUyB2fWD0sTn3JQsfgoRlfZT3wyeaJ2eQ0rsiPwrW9V0urKUidp+de5zZUg/QDuiYlLBeKbYTFRq8oyE1pNdyiRTZt3FGPNYjKYmPiUg4oXzimfRt3LCQxzx2W4OLMBxbsuoOil1XA4suFwulEsJgpVuJGh202bTbxu1WrVBmLi0K4uuPTZxvp9ynHqnmyalpbiAjHxKRuO7H3YsOsCVi+TGDbFpbMhHZUwepXJfUYYYkazPPy9TAx7d2N1nsizmBxVBddad2Ai2GRx2FynyEplYGOfVG30ma/4lntiiuw0gFc80IYenEl3wrX4HLy7xexXYVQxCcmDW0s0A88/gHu12qcojQPwrDB7sgJE0yc8zSPwVfdh8PmAoFQvO2ta9MJfN4DRZdInIiIf6ZuVT3iMz3waBnGvQJ2dq8CuCGf4T2cU0dPfCRtHyWN2qJ7wWOmA8TmRv7IT7TYea3Ven+lzolsvrtKEOMRnPtL7VpHeavkzIfHpk/w5ksOJuIisw4mMnEPY1KAOf5a/dgjZzlq8Uqt7t+owcWVViyRC2VDen8ozjMU7X5v3nMHvYUNPfBI2yViyz/j8prKhC6vzi8ydmwh4lvNTtqUFS02erGDW/AlPZUM31q2txXM2ZaxwFUGcFNn4NraRlgvvS61ySTmRTUuv17zSEcDdj0sr+jBWWIG0BWfhNXmZqVSQEQ43R9DwsoKnEhfMC3kmA7PNQOqJbJCQ1MCjDAWPwLdur/m70aB7kxVIiuxsVyTGn6x1h+kmu7FlYA6IbGwNmBiAHsbDpiF4pIlAiZGuuWB75pGskQEyEJoBimzKeLOhC5kVgLYhA2SADMwOAxRZimzUk3RYWWenstLutDsZSD4GKLIUWYosGSADZIAMxIgBimyMDMseZ/L1OFlmLDMyQAZmmgGKLEWWPVgyQAbIABmIEQMU2RgZdqZ7QwyPPWwyQAbIQPIxQJGlyLIHSwbIABkgAzFiIGFFVlnybbO0aXWMDMCeYfL1DFlmLDMyQAaShYGEFVllM2x5gXSKLHuaZIAMkAEykGQMJJbIim3uqjvgyt+CTFcHKksbkPmCGyu3dCk7lCRLz4XpZC+bDJABMkAGBAOJJbJZm7C0sA3rai4Yu6NU7DyN4uImLHLmsgeXZD04NjJsZMgAGZjrDCSWyOoiMr8WRTt7UdF4AUV5LoqrbhceyQIZIANkIKkYSECRLYGrqhfl66qQkduB8roTWDqfvcG53htk/lkHyAAZSEYGEk5kHeK9bG0bFimbUecie2M3NhVtSqqeSzKCwDSzASMDZIAMzDwDCSeySiGnZwdEVf7NYZKAXWgL2oIMkAEykPAMJKbIEpyEB4c93pnv8dKmtCkZSD0GKLIUdAo6GSADZIAMxIgBimyMDMseaer1SFmmLFMyQAaiZYAiS5FlD5YMkAEyQAZixABFNkaGjba3w/vZQyYDZIAMpB4DFFmKLHuwZIAMkAEyECMGKLIxMix7pKnXI2WZskzJABmIlgGKLEWWPVgyQAbIABmIEQMU2RgZNtreDu9nD5kMkAEykHoMUGQTXWTz+4GWEe1vGKPO1IOQDQvLlAyQgVRlIAVF1oWD+efwsMYTEKeGAYy+uBmuRBfUsOk7jIctcRDZjBIs3dCFCncXXAttKv6CWqyu1rYibOjCy7krLcNMLiwsPIGyxl5lu8KyLS1YkGEJZ/42uLZ0o8Ldi8rGbhS/vAmOsHm3PM97LTanfVK1gWa+kp/thBXZrMIuVG6ujbIxWYWLpR7APYhb+fWoFo17eiFac3rga/bg4fLCKMNLpAKOtchmI3PpPvy8thdl5aewyU5k07dgZU0vNhRtgSM9G5nLDqHUcl/GS6dQubMDS3+2DGkZJVhe0Yvy0lpJRF3I2SLONSAzwwnH8034ubKlIfcLZoOaSPWNaSGPM8NAwops5qrTqCyNVmSdcC1246TVc3I4Ub1qEGjowUnDC3LhZOEAfG9oQ7G1/Rh8PscQYdfic/AJz3Gxdi69HqN1I/AV1xse8cYXz8HboA/ljsBf04eLxrZ8NRitG8boirPwNo0A7n4M5pwzfl+apxWg8xx8dedwcUW/kRZ/ZSfalV2I5EKeRGQz3PBUDgPNI8qfb/NRHAwKQw4v+Hem6wBcS4VnWosii3gqFW5ZG8rr2pCthZu56hQqGntRVrJFs9tq5G7rxYaXV6v/p1dh9eu9qHCfQk6mFl9WE9a5T2P5z7T/l7WpXu8WtyTEwWljhadNyAAZSEYGEktkxTZ31R1w5W9BpqsDlcLbecGNlVu6sGG6293NO46xliGMakOg1SsHgdd7cHGBS/F229dYRTgHZ9YPA9WdaHU40Squv37OLH7zqtC+sATFQrgzKjBY4QG2HUWFIuRCZEfgLzuKPUKg60fg39aJgxnq+Yf5WoURIts8Av/Wo2jNcKJ4wXGM7RmBt7DCEHwVrHAiux7XKkfgW9+qhOGaV49rlR7417ktYURaSe1FVhld2NaETJG/zFoUVR3AUjHiUNWC55Q8i+cuYPUyNR5xf7HLjSJ3L17J1eLO60BlXRsWKfeLvYNPYOlLHajc1YFs5VykaeR9ydjgMM3kdq4xkFgim7UJSwvbsK5Ge+fn7kXFztMoLm7CImekw4k52LO8Dz73CNDkga9SCKkAuxX39oxAFTdd6AKea5pjL241enBriVQJ0ltxb7cHY2vOYqxZ8mpDiYGYpFR3Du3KdT0OEZ7824lLW/V0OJEmRLZlAIOS13lmvUcR9z2meMKIrCLU/bgkhZG2pAf+xh6cMYUh5S3seXuRzd7Ya4wuZBWeRlFeLtKEaG7fhywR3vMt2KB7wEKEt4nzJXBt70VRnhr3c2u6jPsdeR1YV1iCtIX7sMndgSVh0xRp2nnfXGvEmF8yn8gMJJbI6o3s/FoU7exFhfKuzhWdN7agE96mIYwuWY/q+Xtxq14XNFnohGAFhnkDs3f1ewPQuvL6lAlUvrVuY5jYKNCMGgxuHISvUZpkNSWR7cclPe8OJyqEl22Eo6cljMiaZiDL+TKHa6Rbisv+3CQim9mA4ipNWEOI7ILiLlWEQ4rsJqys6sASMYxMkY2O8UnLT2eGR3u+aRfaJX4MJKDIiiHEXpSvq0JGbgfK605gqfGec3LDHCwaAiqPm4Zszd6rCEMIlsVrtW24ctBeMgy/26OKnuwpOirgqR5Rh5wXblYnWU3ZkzWL4ZREdspeq51N7UVWGS7e4saiEl1AnVDOmYaLu7Ey1x0QYeX9rmW4+PUDyH7pFDYIL1bYXQg1h4sptLZ10I5PnqNIJg8DCSeyDvFetrYNixRBy0X2xm5siuJ9bHvxMLD1sNZgyd5r8O/g957mglMmPzUP4lpW8KQnVagtnu8MiawyXGx0FPQ0hfFklSHnIXiUYXH9/ukc7UU2TZn4dAHl21rU97KObCwpDZ74VL6zG6tzstUyULxU68SnCyjfEZhApYs3P+OZTpnxWQoPGUhEBhJOZBUjpWsNtOjZyr8j6OlGJrLaRKY9gxh9oRAuRw4qFh/FvbWHNQ9YxKsKq3eNOgHJJd5xNg8FZhs73LjVMAIxjFyRLiYsteLW6yNAYw/OKx2EYFHXJzsFv5P1YGxVvRrOwk5l4tNYgfVzI/HOeARjq8T3vjmomC/SrVcqzauuPosz83LUiVwFfbg15U+WQois9glPackWOBzik59DQZ/6KJ/wNJ5ATla28glP7pYLtp/wVJQ1IDNd/YSnuO6CNrSs54fHRGwsmCZySQaiZyAxRdYQj+gz5BLeZEMPzqSLz3nOwbvbo012EhOf5CFiyyc8u4fwsHAvqpW41WFivH5Wm8Qk0pGD8+IbXGmGsWtxJ8YatXegDQPwvODGaI3wbsWEqmhEdhD3Ng4FPr/ZeEBLhzn/1Xl9xmc+4p2taVKT/AlPi/icaACeZeujGoJUPEqxQITlT5+0pFQwLkYRlU3ZKJkZpj1oj7nGQMqJrOKB1mjC5+7HpRV9GBOfwyw4C2/zAAb171OnIeQzCoky1Gt+Jzuj4SdKPpkOijMZIANzkIHUE9mgQqyBRxNd37q90hBrgvQoKbJseIKYTRA2mS6ySQamzcAcENkEb7CEyL7Rh4uEedowcwQgwVkn42R8DjJAkZ2DhU4xohiRATJABuLDAEWWIsveNRkgA2SADMSIAYpsjAzLXmJ8eom0M+1MBshAIjNAkaXIsgdLBsgAGSADMWKAIhsjwyZyz4ppY8+fDJABMhAfBiiyiS6ypsX/hzHqjA8YrIC0MxkgA2Rg+gykoMi6cDD/HB7WSDvjNAxg9EWxHOH0DTZ70IVZu3gm85VRgqUbulChb1knh52xCbmlXajYpa4KVVHdhqULpCUwlaUW96FY36qw8QI2bKjFc6aNFfQyWI3lFd14edkyDlPJNuZv8kAGUoqBhBVZZYm/zbVRGnsVLoqlD92DuJVfr+6Mk16I1pwe+Jo9eDjltXx1YZjNY6xFVqxFvA8/r+1FWfmpoDWJ0xzLsGhdN0rX7UBmhljbeSUW/bwLlTUHsEBvFDI2wVXahqXa3r+On+3A6ppelBZvCi7HnDaU1wU2CZi9zstslinjZrmTgVRnIGFFNnPVaWOD8GgKwbXYjZNCBPSGXztWrxpU1jQ+aZy3rF1c24/B5wObuCs78LRIG7VrGwb4iusNj3jji+fgbQjs3+qv6cNFY1s+sXbxMEZXnIW3aQRw92Mw55zx+5K+vKNYjKLuHC6u6DfWJfZXdqI9yPubRGTltYubR+DbfBQHg8IItotsp0zXAbiWrkSasj1dF1wLrfdnI00OU9lhx+6+wHNKZ6nU2llyIWdLLza8vDqonOT08HfAjrQFbUEGkpOBxBJZsc1ddQdc+VuQ6epAZWkDMl9wY+WWLmyIYrs7WxjnHcdYyxBGNeGoFhujv96Diwtc6q41a6winIMz64eB6k60OrRde6TNAZQ45lWhfWEJioVwZ1RgsMIDbDtq2svWX3YUe4RA14/Av60TBzPkjQOcSBMi2zwC/9ajaM0Qu/kcV3bhCd6GL5zIrse1yhH41rcqYbjm1eNapQf+de4piliIXXiMDooGu3MfSt2nkZsVAv7MLVixXeyw4zKnY/EBlNZpG7Zbw+T/ZlvRHrQHGUhqBhJLZLM2YWlhG9bp7/TcvajYeRrFxU1YpA1B2gqoCcIc7FneB597BGjywFcphFSIgNiFR9//VRe6gOea5hBbycm79Igh0Vbc2+3B2JqzGGuWvFpTfJLATHk/2QEMSh6isp9sdSf2mOIJI7KKUPfjkhRGmtiab8obuUcistnIKupC5bYmbW9ZyQ7aRu2VDd0oLtwG8z6xuVhaJg0hC6Hevg9ZprzKYfH35MzTRrQRGUhUBhJLZPWGdn4tinb2oqLRxgvS7wl1XNAJb9MQRpesR/X8vbhVbxVWAaMQrMAwL6Tf+p6veoG58vogrot9Y4MmTmXUYHDjIHyN0iSrunPa9ni6kIv45N9OBO8na96Fp0J42UY4euUJI7KmGchyvszh6nma/BiByDr3YUNjiKFiZQ/gZch4vgorq3pRvq4q0BMVQ8y7TiFHH1bP60AlRTZgn1Bc8zxtRAaSkoEEFNkSuLSGOSO3A+V1J7BUb5AjgOxg0RBQedw0ZKsKpyx0QrAsXqtt2Oq+sn63RxU92VN0aBuliyHnhZvVSVZT9mTNYjglkZ2y16qLuHycRGQXuFG8M8IO0LI2lO/qQLZm31B71lbazWa2LRM5nfw9eYeJNqKNyMBsMpBwIusQ72Vr27BIEbRcZG/sxqYo3se2Fw8DWw9rPR5ZWIN/B7/3NMOoTH5qHsS1rHqM1o1AnvSke8Mmz3eGRFYZLjY6CnqawniyYri4ZQgeZVhcv386xzAimyVGGSIUWCGSFpENgp2ebFL2zoPKkR0iliMZsGUg4URWqbzKcKMmEvLvCAoxMpHVJjLtGcToC4VwOXJQsfgo7q09rHnA4n2sKqzeNRWK4VziHWfzEEYX6+9x3bjVoA4jV6SLCUutuPX6CNDYg/NKByFY1HVBDh4u9mBsVT2UcBZ2KhOfxgoKLQUm3hmPYGyV+N43BxXzRbp1IdW86uqzODMvR53IVdCHW1P+ZCmEyAoPtrYbq3MsE5m0dDicLVhX3SF9wmMzXGykWUs7RdZSznqZ8kghJwOpwEBiiqy1IY7if5fwJht6cCbdCeGJend7oIqbmPgkDxFbPuHZPYSHhXtRrcSlDhPj9bPa+1UBew7Oi29wpRnGrsWdGGvU3oE2DMDzghujNeIdsBDiaER2EPc2DgHNI8qfb+MBLR3mSlad12d85iPe2Z6R7SJ/wtMyAn/NADzL1kfVgIcayi3KU9OxpFRdhKLSbT7q18W3tAtWdmDDTu16QzfWFe9ApmmY3ZynNIpsVGWUCo0O82CpA3I95u+Uqw8pJ7KKB1qjCZ+7H5dW9GGssAJpC87C2zyAQf371ESBWRnqNb+TZSPERogMkAEykBoMpJ7IBolnDTya6PrW7ZWGWBOkACmyKddzZeOYIHUrqC1gushm/BmYAyIbf6NGBbIQ2Tf6cJENAsWWDJABMpByDFBkCXXKQR1VJ4flz/InA2QghgxQZGNoXDb2CT6KwLJn40oGyECMGaDIxtjAFFoKLRkgA2Rg7jJAkaXIsidLBsgAGSADMWKAIhsjw7LnOnd7rix7lj0ZIAM6AxTZRBdZ0+L/wxh1El4dXh7JAhkgA4nOQAqKrAsH88/hYY20M07DAEZfFMsRJjOQYdYunpF8ZSMz9wDWva6t1tSoblOXYQ17QS1WV1+AsupTQxdezhWbvMt2dWFh4QmUNarhlG1pwYIM6Xr6SmQXnzKuV7x+Aq4l9ss0msOVwjDFx/O0ExkgA4nLQMKKrLLE3+ZaSwM+mSFX4aJY+tA9iFv59erOOOmFaM3pga/Zg4dTXst3snjjcT3GIrugCetqT2F5dq5ic8fzTSiu60WxS/1fqcTpW7CyphcbirbAkZ6NzGWHUGrZPSfjpVOo3NmBpT9bhrSMEiyv6EV5aa2xp+xzL59GWUULFmRmQyzD+NyqUyjfdQJLM+NhQ8bBxpgMkIH4MpCwIpu56jQqS6MVWbFesRsnZc9J83qqVw0qaxqfNLwgy9rFtf0YfF5f/F9d99jXIm3Urm0YIO/Es/HFc/A2BPZv9df04aKxLZ9Yu3gYoyvOwts0Arj7MZhzzvh9SV/eUSxGUXcOF1f0G+sS+ys70R603u8kIiuvXdw8At/mozgYFMYkcFk2Y1DWKpbLQOyoU9eGbC3czFWnUNHYi7KSLVpnaDVyt/Viw8ur1f/Tq7D69V5UuE8hxxDRbKSZ0iU2I+hFYP3jSdJolB/vY2NJBshA4jOQWCIrtrmr7oArfwsyXR2oLG1A5gturNzShQ1RbHdnC9684xhrGcLoQrVQqsXG6GIv2AUuddeaNVYRzsGZ9cNAdSdaHdquPdLmAEoc86rQvrAExaLhz6jAYIUH2HbUtJetv+wo9giBrh+Bf1snDmbIGwc4kSZEtnkE/q1H0ZohdvM5ruzCE7wNXziRXY9rlSPwrW9VwnDNq8e1Sg/869xRjgTIwGZj6WbzhuvK6MK2JmSK/GbWoqjqAJYWdqGyqgXPKeInBPMCVi9TwxH3F7vcioi+kiuHLf1ONz9jW3YU1mmUo2Rr2pF2JANxZyCxRDZrE5YWtmFdjfbOz92Lip2nUVzchEVOadgyLCg52LO8Dz73CNDkga9SCKloaMQuPGKHHPFbF7qA55rmEFvJybv0iO3uWnFvtwdja85irFnyakPFP+X9ZAcwKHl3yn6y1Z3YY4onjMgqQt2PS1IYaWJrvuls5D6/FkV1QjDFsK7aUGdv7DVGF7IKT6MoLxemXXSeb8EGffhYiPC2fchylMC1PbSnmpF/AuU79f2DKQi6rXkkC2QgNRhILJHVRUU08Dt7UdEYxebg+rMLOuFtGsLokvWonr8Xt+qtwioKTghWYJgX0m99z1cdcFdeH8R131p38MSpjBoMbhyEr1GaZFV3TtseTxdyEZ/824ng/WTNu/BUCC/bCEcHLYzImmYgy/kyh6vnafKjC0tKL6B84w7jXap4xhDZzAYUVwkBdYYU2QXFXaoIhxNZpZwv4JXcSDtQui14nLwMaSPaiAwkAgMJKLIlcFWpw5QZuR0orzuBpcZ7zsmhOVg0BFQeNw3Zmr1XEYYQLIvXqou06ajuK+t3e1TRkz1Fh7ZRuhhyXrhZnWQ1ZU/WLIZTEtnpeK2mPLuwsKQLFUJETfl1Qhku3uLGohJdQLVzpuHibqzMdQdE2KG+cw0aLp6/DSurerGhMLo9bxOh0jANk9dD2og2IgMqAwknsg7xXrZWHz7MRfbGbmyK4n1se/EwsPWwNsQpe5DBv4Pfe5orhtj03dc8iGtZ9RitG4E86Un3hk2e7wyJrDJcbHQU9DSF8WTFcHHLEDzKsLh+/1SOy7CgyF5glQqjTHy6gPJtLep7WUc2xOQo68Sn8p3dWJ2jDTMv3IdNpolP4v31JqygwBrD8GyMpsIqnyE3ycFAwomsAo48y1X+bfK47A0cmchqE5n2DGL0hUK4HDmoWHwU99Ye1jxg8T5WFVbvmgqlMXSJd5zNQxhdrL/HdeNWgzqMXJEuJiy14tbrI0BjD84rHmCwqOuCHDxc7MHYqnoo4SzsVCY+jRUUWhph8c54BGOrxPe+OaiYL9Kt20DzqqvP4sy8HHUiV0EfbkX1yZLqwZZVNAV5sEZl1j7hKS3ZAocjG5lLD2GT/g5WS4vyCU/jCeRkZSuf8ORuuWD6hCdN8WC78fNV9GANuxrlqJcnj7QNGUgVBhJTZKfR6LiEN9nQgzPp6mc43t0ebbKTmPgkDxFbPuHZPYSHhXtRrcStDhPj9bPa+1UBfA7Oi29wpRnGrsWdGGvU3oE2DMDzghujNeIdsBDiaER2EPc2DgHNI8qfb+MBLR3milad12d85iPe2Z6R7SR/wtMyAn/NADzLohAyxePUFqJwS8ft2rtXPa5pLkahDDnL4Wu/NxWWWDoV5rynSoVjPliuZGBuMZByIqt4oDWa8Ln7cWlFH8YKK5C24Cy8zQMY1L9P1UVjto/KUK/5nSwr4dyqhCxvljcZSF0GUk9kg0SzBh5NdH3r9kpDrAlSqBRZerBBzCYIm0wX2SQD02ZgDohsgjdYQmTf6MNFwjxtmOkNJDjrZJyMz0EGKLJzsNApRhQjMkAGyEB8GKDIUmTZuyYDZIAMkIEYMRA3kWWvKT69JtqZdiYDZIAMJA4DFNkY9V4IeeJAzrJgWZABMjBbDCS8yGblubFILGxAMaQNyAAZIANkIMkYSGyRFTu51HVj5WL2wtjJIANkgAyQgeRjIKFFNvPl06gsazDtBEPIkg8ylhnLjAyQgbnKwKyJrLK8Xmlt6KGP9Cqsphcb2j5JNmQyVysY801xIQNzm4GEFVnFi93iRgbFhEJLBsgAGSADScpAfEU2rw1lr3XAlbcJC1/tQuXmBjz3ghsvbxO7sqwOQCS82J3dWPkCJzyxFzy3e8Esf5Y/GUhuBuIrslmbsLSwDetqLqBS232lYudpFBc3YdHzywyRzVx1GhXbmrQ9S5PbwKwgLD8yQAbIwNxlIL4iq7v7C1uwYdcFlNddwOplFm9V2bP0QmDTb/0ZHo1OCCvs3K2wLHuWPRlILgbiL7Lp6+Gq6sWmovXIzD+B8p0dWDI/YDRl0+/XWujFslPBTgUZIANkIOkZiLvIZizvQFnVPmSlC2F1YenmbqxbpW/YvQkra+jFsqca6HTRFrQFGSADycxA3EVWMVa6NEQs/Xa4TqBy+z5ksfeW9L23ZK4UTDsbdTJABmaKgdkRWVsRVb3YorxcCoytfQj9TEHPcMgSGSAD8WIgYUTWkdeB8poDWECBYSeDDJABMkAGUoSBxBHZ+ZuwwEkvNl69K8bDnjwZIANkIPYMJIzIsrBjX9i0MW1MBsgAGYgvAxTZFBmSYMWJb8WhvWlvMkAGImGAIkuR5bsfMkAGyAAZiBEDFNkYGTaSHg7vYU+YDJABMpDaDFBkKbLswZIBMkAGyECMGEhZkc0veCXJoMnBwRV98NZ54K85h/YYFTh7zanda2b5snzJQGIxkLAi23XzKfwTN9BlEZv3/zIBv1/783pwxHJdAHbk+hP4//JBcolsVie8LcO4l1OFunk5yZV2mzJgRU+sis7yYHmQgdlhIK4iqwrkE3zapme2G7d/EIJ5F+9bGuojw4/h+9vHtiKqwNJ/F/5UEtl5xzHWMoBBZU1n3T48smEgA2SADCQzA3EU2WZ88vUTeL0TGL/WrHpqBz3wfvcUPhuRndSoqSayjsN42DyMUScr1KRlb+mQ8X4yQwbIQKIyEEeR7cCnQmD/9hj+u+pQbv6HD+C/cxP3/U/w6UENEiGe+nCwOH84BDyTiuxVdF1/AJ/iKU9g/PoZlEuN8/4P78I7ERh69n71MY4USHEd9sCrpOMu3i/owCdfPVXT9cNNyxB2IS5t9gDNHtzL2XqgcQAAIABJREFUmc4wbw1G60QYUhqk9CYqQEwXy4sMkAEyEJqBOIvsE3z6ofBeb+BdhxPv/ukpHg1eVUXWKqaKyE1DZP1P8Wj4DMoLnHj11zfh8z/GJ29Ihmg+jGMN25HvcCK//Aw+807Ad+Mdy7vQD5S0jf/tCcZFWG0eeIOGqDfj2i9GgJYRjK0otDwvxTeJYLqyjmJsD0WWlTVyZmgr2ooMJD4DcRRZ8f5ViKY4CsE7jE+/ER6sKmRBHut0RfbLK4qAqhCGiEMSPvvJUuK5Cfi/vKJ6wQc/xqOvPsZ+6Tk1fBeq57umKLCH8bBFFWnfxlbsCQo78SFiRWcZkQEyQAbsGYijyOpC9wrEBKhHH17BI8WjVYXsdrclgdMVWdPsYj3uQBz57m588pcn8ElDxsEzkrW0XYjt50DF8zfjYE4PfM3DuJUdSCOhpS3IABkgA8nNwCyIrBO7rj2G3/sEvr98gHyH+q72fr/FkLEU2YJu3J6YgO/Lqzj2hlsZUg7tyYYZsp5Rr1O8kx3Bw3yLHWY0DobNBosMkAEyEE8G4ieyb3yMcf8DXBaTixQB1WcZz4LI2gj4tEQ2vRB1Ux4u1oGvx2j9MEYX6//zGM+KwLjIGxkgA7FgIH4iqwib/j1sKareaEbVWlGo4t2sLrhSIdsIockAnTfg8z/AVfcrSCvYjqrywJBusGBahosrr+CRfwKPruzHq45XUN52FY/EsPHfrqLK5DlanjNd09M6MxOfhB0etvATHlMZ29pbtzuPtBUZIAOJz8AsiazZMOIdrfd6hzJxSBFI4xMe/RMbuyHbOvTcfGJ87uO9ccaYeDSpyDqcqLpwE17t8x7fNzfR03YF9yekeDRv2/icKGhWsZ6HGfqER1nxqR+XKCxGObIB0RnjkSyQgWRlIH4iS/EILx7Kik9i4tNUZymzEiZrJWS6yS4ZSF0GKLIJI/45aF8zAH/TCFDHDQLY6KRuo8OyZdnOJQYosgkjsqx4c6niMa/knQzMDQYoshTZ8MPYtA/tQwbIABmYMgMUWcIzZXjYE58bPXGWM8uZDEydgbiJ7Iu5L7Mxp6CTATJABsjAnGKAIkvg5xTw7JFPvUdO29F2ZCB6BuaIyJbiVWXhi+gNlExQLZe36mPngZ0HMkAGyMCsM5DEIqutP/yn7giMGMnKTVMX4J3/fS/+MdGI89MBumkrvvrpGO5fzTPn51ITfD8d0/4OYPiIXTo34M5Poa7Z3T/Nc7vLcX/iED7vm2Y407EXnzVzQnvQHmQgIRlIYpHtwCd/e4rxYXWlqPAeZ2xFNq2v0VZk3/7jAUUc71/WxSgPHz0RgmkjiJVr8fmzQ/j8t0tCgBJOSMNd0+OeyeNafE6RDVFOM2lnhhW+XtM+tE/iM5DEIhuNceMgsv+zFqcsPcnTX7Rj/Nkh+L4o0Rrktbjz06/g/d5GZC3PBleecEIa7lo0dor0XiGyB3D915Hez/uCy5M2oU3IwFxgIClFVqx1HH5NYWld4x+e4tH1mxj3S+sSG4JWA0/NCNA0iGsLpgH8yWqMff1a0Gbu7/31GMbHWuH79hd4S8TZvgPjTxrx+bNjuPNbPb4CDD/Th4OPwffXDSE8pHBCql3rLcWdb9vVoeXvm9DfosfhxLrf7MBXz7RrPx2D99t6dNcErgvYRXrF0PT4HwtQ2VOP8X+p/3/1sWUI2/Ey/vCPN/HR2+bn50KFYR5Z5mSADETDQFKKrJ5BZSMAm4X7W8R+tRMPcPVgqbJDz7vXxUYCdiLbinu7R4DmYYzGYLN0IVr3L5fi/k8tuFLpRNnVFnj/vEUR1TuXgkFVRG7KInsMvmeNeK8lG2kFebjy+JjkQTuRVunC22+/iCIh9mvz0P+oHb5HW1BmdDjU9ChD3E9a8ZUWlkiTXVr1MuAxuBxpE9qEDJABnYEUFFl1f1p9Vx81o2GGi9MLUT0vJ4T3OB1Q1Pevdy6JYzs+P+/Ee/eEB6t6rnbCNT2RPYTh9kB6FbEMKdhOpIkJVc924G07kf3pEK6fVMPqvv0rfN4bCFcHh0fahAyQATIwOQMpKLJCUCdwv1/OfBiRtYjMzEETEFMheON/LMXwM+HRqueDh2C14dqQwhjBcLE08zhIZNcWoP92K8a/DwwZhxTZJ6+hKWZ2kcuFv2eON9qStiQDicgARTZmYhIQ2bTzjfA9O4BxzXMUHqt472kFYnqerHkylVlkXeqs5m9r0f12HirFN8PhPNmQQs9KbC0z/k8myAAZCMdACorsGXz23QTGrzUHRKzgCh7ZvpN1Ii2jBHUxGS4uwef/0oZwC4QXGnhHGn+RVeM3DVFTZAN8xKyjxcYnXOPDa+RjLjCQgiLrxLEbT+GfuIvL7leQtnY/Lt99OgsTn8zDu2UNeajZqlYq8W428FlPoKKF92TX4Pr3x3B/KA/LHU6U1SxRjiqk5rjEObMnqz47/tkalBU4UdRSguvfHoPv+3qctqwSZX4ukLboKsN2vK/Y/Clud79CMaOIkwEyMGcZSEKRVSc2GZ/w+LXPeeRZxgUd+OQrIawT8P/wBLffu4r7tp7sDH3CY1uBgoVPFyqzkKleZmBVJ+1zHpshW/mzGt+zWpw04g2OyxyHE8vbX8P977Wwn7Xgo3fXYPhJu2nmsCLyxupS05lV3IxPvlbLxTSiYKR3quLN53SGeCQLZCA5GEhCkU0Ow871CtAy/Bh+/2N80szymussMP+sA3OZAYosvasYDOO8gstfTsD/5RWU074xsC8b7bncaDPvycU/RZYiEAMR6MbtH57isxPJVRnYeLG8yAAZmGkGKLIU2RiILCvqTFdUhkemyEByMkCRpchSZMkAGSADZCBGDFBkY2RY9jqTs9fJcmO5kQEyMJMMUGQpsuzBkgEyQAbIQIwYmMMiW4ryci6UEHWPrcApLYLBHm/U9otRRWY6yCIZSEwGkk5kJ99LNjJDi3DMO/VE9pwB8mEPvPpCGEEbEkQZVoQN76k/H8A/bPatNdIUQTgNQ63w/asVV5osaRTLLBoLUZjXQTbCP7ID4z814b0I4jGemc69u8txf+IQPu+zpHU6YfJZeixkgAzEkYGkE1mj8e6/C7+8ylOURpu2yBrxqStQmXf9iY0o7P8fb9qKrLK6009i71o9XnWbPd9PwWJZ9ttGjIu9Yiv1e63H4NWjDJvHW2Qda/E5RZYNolHXrKzyf6Nu0kYJW08ostOGM84i+1/l2GlJ8+kv2jH+7JC0HvJa3PnpV/B+Hyyyk1fKRBPZA7j+azamk5cbbUQbkYFEZCAlRXb9rz0Y92prGvsn4PvmJnp2mAFUPNkbV8xrHF+oM/WG8t3v4fY3+hrIT/HoejeqLAKX5ohAZJ1n4W0aAX7Ridag583pCgdJ6cBu/OOLtaY0ivuVXX3GWuH79hd4S4TfvgPjTxrx+TOxSbwWvuKFamsX/xRuXeLJRfbKb3YE1kF+sgMnJa943W924KtngT1rvd/Wo7tGzqMIX6RDdABeRPftA9ow9S/xkXUI2/Ey/vCPN/HR2/Lz/B2OEV4jH2QgsRhISZFNqzyMIwfr8KoQHLELj80Sf8q73R8e49PO7ch3lOLY9Sfw+x/gsi4YBWLLvKd49FEHyguceLX5Pdz2TuDRle0WkYtAZJf1wd8yAtSfkxb1nzkQhMjev1yK+z+JTeGdKLvaAu+ft2BYiOwlazyqyAWf1++bTGSPwfv4NZwUOwqtLcLn3x+DaQP6ShfefvtFFCm2z0P/o3b4Hm1BmalzoW1cP9aK8S82oGmtiDOO73pNadHzzSMbZzJABmaegdQUWWsjavP+NuidbMEHuC8mMGmTbPJtnikffAD/V1ct6/FGILIOJ1zzSlCRPvMFmOZQ37/euSSO7fj8vBNiK707v5U2jTfZY7oi24R+aXs8xYu22YDeqKy2+9aqafN9X4t2JW1r8fn39eg2pTMWtmKYRrnQ1pbOMtkgG7FhIDVFdu1hXL75GN7vtKFeMQvYMkkqSGS1YV99xvERxbMNDDkbW+tZwolouDimDVpATMUEqPE/lmL4mfBoNW/x4zxLYzJ9kZVnFweJ7NoC9N9uxfj3gSFj37MdeNtkAy1tf3BZ0hYbyNl40K5kgAzMFgMpKLL71b1Mv7mBnoPNqFr7/8Nl45VGJLJBXqsdqJF5srEr4IDIpp1vhO/ZAYxrohYkgIrQxVJkXfjoyTH4vq1F99t5qBS2D+PJhh6ytrMzz8WOIdqWtiUDsWIgBUVWG/btl6CJRGQLruCRdbj4h5vokYZG7QshMpEtnr8+RsPFJfj8X4cw3O5EWoEqoL4vShQPMf4iayPgFFl666ZRDKle8jzZmAMMJK/Idt6Az/8AV92vIK1gO6qM1ZvewWffTcB744wxYemzbybg/+4muiTBVCY+CW+3uRRpBc3ouvkE/gnpnoJu3J6YgO/OB2gRHtna/ei5fhNXD1sbie24+tUEfDe7lYlWr+7QJlzJ8MR04pMQtsCnOmUNeagRk5LErON7x6TPevR02wihnFbHGlz//hjuD+UpKzuV1SwJrPBk852sWcjVZ8c/W4OyAieKWkpw/dtj8H1fj9OS7dMckvdtiltPY6THDnXU4ofHuMrN4dlgT4ulSJnjffbOBu0Syi7JK7KOOvQIYdRWXRKiqmcyv+1jPPpOe5/qfYBPOs/g068ncL8/sIyiENlH16X7vnuAT9oC10VYpk94/BPw/u0mLu8336PcJ8c3cReXay3AzdAnPHr+zEezyMrXlEUq/rpBtYtpRafwn/JU9tRj/F/aPc9qAzOiJxVZJ5a3vxb4vOdZCz56dw2Gn7RLs5xVkQ+sLjWdWcVi31q1nG93W2zOBteoDzIT/E1OyEB8GUhikY2voQhmYtq7584E/BEN6ydm+skVy4UMpDYDFFl6PEns8ajvw3033kniPKR2A0MBYfnOdQYoshTZ5BWoNz7GuLyACMsyecuSZceyS1EGKLIpWrBzvffI/NODIgNkIBEYoMhSZNmDJgNkgAyQgRgxQJGNkWEToQfFNLAnTwbIABmYXQYoshRZ9mDJABkgA2QgRgxQZGNkWPYeZ7f3SPvT/mSADCQCAxRZiix7sGSADJABMhAjBiiyMTKsuQd1EG//8hlOFVYS5LjYmz14M3+0B+1BBmaLAYpsHBr9zKIvMHT8C1RnEPTZAp3xkj0yQAZmg4EkE1mxws8TfPqhB+NizVqxTvCFwO/3K1WI1v/ag3FvYC9Y3zc30bNDBqwOl7+cgP/LK6jSRLbqwwdKeO+b7nOiYnk//M0j8G9shWtKgtyAN9/6Ef3bDtKLnZL95HLj79loJBgnuSMDU2cgCUV2Ar67V7CrQFtS78ur2L/Wst1c5WEcOajthrN2vyGo5XIjv+MqHvmf4na32MVH7LjzFPf764KEcM/qQaBlBKg4igr5+Uh/v/Sf+P3xB2jMmnohEXDajgyQATKQnAwkpcjeV/aKNQur2FVHPW9TEDb7yQpgW649ht97A1dvPjV5tVaYi+eXoDhSUTXdtwNvvPkjfl/zrireeaMYODKKItM9Nunl9aDOjrVM+D+5IQNkIBkYSE2RXXsYl28+hve7p8ZWeH6vB0eCxGu/th/pA1y2DBPPSOHljGLgncd483mtMqx9gGGKLAU0iEM2ljNS32hX1q0EZCAFRVYTTrEh+8FmVIkN10N4smk7ruDRxFP4Jibw6MPgoeLpVvyi6mcY7vzR5u8Z2nLYsE7XvnyeDJEBMpDoDKSgyH6A+37L0LGtyKqTn3x/OoNdISY9qYWXg4rnpjpcbKkA9GTZ007AnnaiN1JMn6UdIUNJ1Y6koMi+g8++m4D3xhmUFzjxavN7+OybCfi/u4muggCs6mxi/Vwdrn41Ad9fPjBmG+sVe9oTn+QKEUZky/vuwuefgO9mN/LlZ/g7qSqUzg2PgbpGW9AWc5mBFBRZJ/LbPsaj77RPeLwP8EnnGXz6tfBuX1EbbDFM/MNT3O/bHmjAm8XepMEzjKf/CY9UwcKI7C4xCcs/Af/XH2MXhTVQLrQFbUEGyEASM5BkIisJVhIb3bZXp4j8BMaH97NCpVrZMj9kmgzMWQYosgkCf754L+x/gMvaghq2QpwgaWXaUrizR8bmrBiwXsemXlNkE6RR6bozAd+Nd1jBE6Q82ODEpsGhXWnXucYARZaNOoWdDJABMkAGYsQARTZGhp1rvTXmlx4KGSADZCCYgbiJLI0fbHzahDYhA2SADKQ2AxRZerIcJiIDZIAMkIEYMRB3kW0vHoK/cRjedQewJz21ezDsobJ8yQAZIANzm4G4i2xaRgn2LDyKh7tH8HD53DY+Kx/LnwyQATKQ2gzEX2QVl3wzPNUjeJif2sZl5WH5kgEyQAbmNgOzJLL1GK334NaSuW18Vj6WPxkgA2QgtRmYJZE9jIctwxh1prZxWXlYvmSADJCBuc3A7IlsswdjBZvhitGMLoI9t8Fm+bP8yQAZSAQGZklkndizrA++lhGghe9mEwEEpoENEhkgA2Rg5hmYJZFtxb3dI/Ctb8XBrBnaEJ0eMb9zIwNkgAyQgQRjYJZElu9k2WOc+R4jbUqbkgEykGgMzJ7INnPiU6LBwPSwgSIDZIAMzCwDsySyNRit8+BeTqjMdOCTryfg/+ExrjaHuofnWRnIABkgA2QgsRmYJZGdbDGKbtz+YQJ+/wRudye2AQk4y4cMkAEyQAZCMTA7IpuxF/cawi+r2HNHeLI30VPAwgtVeDxPNsgAGSADic1A3EW2vXgYaB6Bb+txHAy5QUAHPvVOwHfjHc6US7CZcqzQiV2hWT4sHzKQWAzEXWQjAuCNjzHuf4DLlYllrIjSTlFkx4gMkAEyQAY0BhJTZAkoASUDZIAMkIEUYIAimwKFSA+bIx5kgAyQgcRkgCJLkWVvmQyQATJABmLEAEU2RoZlrzIxe5UsF5YLGSAD8WSAIptMIjt/Lzxbh+B3c1OFeFYSxsVGmQyQgakyQJFNIpE9X+oBKjtxkpsqcGgribidauPE5yhsqcBA/EW2oBld1x/Aq63o5P/hKbx3r2D/2hkG6uDHeDRxE++nUGN0Zr0HvpJ6CkwKlWkqNCLMwwy3XeQ7pdq4OItsHd7/y1P4v7mBnre2I9/hxKvN7+HTmx/jyEyv7HTYA6//bkqJ7MGiIWDr4ZQCkA00G2gyQAZSmYG4imz+hZvw+x/g6o5wUJXi2LDk6X5zF5f3vyIJywe47xfnruD+N+r6xv7v7uKysZGAulqUWPfY9Hf3AykMEf8k8QiR9nrQ9WsPHn2nhfW1B+9KC2Ss/7UH495APL5vbqLHLm/Os/A2jQC/6ETrdHqp+f1AdSf2TCcMPmvhIByLvJbKjR/zRr7jwUBcRbZLrEf85RXFgw2VuarBB6qn21yKtILtOPLRA/i/u4FjhjgIkX0K39c38b5yz2F8KnbsudNtbjwn8WQnjUc8L4ayv/oY75a/grS17+H+DxMYv9YciKfyMI4crMOrIm1r9+Pyl2r+yo20ahAv64O/ZQSoP4eT1msR/+/CybXDFNmI7cUGJFQd43myQQbix0AcRXY7rn41Ae/1joBIBTWYqhd6v1/2XM/gs++e4rNO3ShCZJ/g0zb9fyeOXH8C/18snmpYkY0gHuX5B7gsDWO//5dJ0t9/F36vB0eC8uWEa14JKkKu1RzIix38ynrPQqR3D+La4pww9gsfjl3YPEebkQEyQAZix0CCiawQ0MDwqzzce79fN4Imsof1/6cishHEYyPSQSK79jAu33wM73dPA0PTIUR2WhCnF6Iuqx7XtnmAbUdRYSPi0wqf4bHjQgbIABmICQNxFFknJh8uFuIne60BIQ2IyEyJ7CTxTCqy+9WN5cUkroPNqBKzo8N4soH02+UpwnPinWzdObSzMsSkMsxIGbFsWDZkgAxIDMRVZCef+KQO444P7w9TSNGIrHm4N9CIRhDPpCKresMBDzu8yBbPXz/l4WI93a4VA0DFUbikAtSv8RhhR4W2C1O3aEPWIzIw0wzEVWTTHDaf8Ox4B5fv3sWnbep72JZrj+H/4TE+7RSf+LyC8rYruH3jAwQmE0UosgXv4fYPE3j0YbMazlv7sUt6vzppPJOK7Dv47LsJeG+cQXmB+inSZ2K283c30SXFoxTYjEx8ckJ5N8tPeCgS7CiQATKQNAzEWWSdSJt0MQrLpzUTT3B/uBtVBlQRiqzDiaoLNwOLXkw8wWe/rpAKZpJ4JhVZJ/LbPg583uN9gE86zygznc0Tt5xIm6FPeMSKT77iGikP7HXOdK+T4ZEpMkAGZpKB+IusIZYsyGgLUqz4JIaL90xxlnK08fF+MkoGyAAZmB4DFNlkEv35B3CvdgRo4QYBrPjTq/i0H+1HBuLDAEU2mUSWaeVQORkgA2QgqRigyBLYpAKWve/49L5pZ9qZDMwMAxRZiixFlgyQATJABmLEQNxE9sXcl1mIMSpE9jhnpsdJO9KOZIAMzDQDFFkKHzs/ZIAMkAEyECMG5ojIluLVmd4UPkYFMtO9KIbHnjkZIANkYPYYSGKR7cbtiQn4/mTZ4s5W/IIXsJhJ6Hb+9734x0QjztvGPXuFO5N5jDYs2mRulnu0nPB+cpLqDCSxyHbgk789xfhwuK3zdIBjK7JpfY1hRDYbb13ejfF/HoPvJ/HXjvHHO3B6t562mTt23/4VvvpDQWIM+4S1yczlOdUrKPNHVshAcjOQxCIbjeHjILL/sxanbDzZt/94AL5/tuDKv7+IIocTy7euQv/tWrxXE036I7v3vb8ew/gfE0hkQ9iEjUZk5Uk70U5kIPkZSEqRFfu6GnvN2u7fWoeem0/Ue354ikfXb2JcbPQu7UGrwlsDT80I0DSIawumUZgnqzH29WvYbxXZltfw1U+HcP3d8GEv370Wn3/brnq6/zqE+38sQqUUlhDPO5dd6L93wLjnzu/yAh7rpSbNS9a9ZXE8gOG3zfE29NYHPOrvWzD8mxcDYTicmDSezSUYHjsUiOufv8TnPeYwjEYhlE2kfBn38pypHGgXM7e0B+2RzAwkpcjqBj9y/Qn8NiKr7LAz8QBXD5YirWA73hX32YpsK+7tHgGahzGaPfMgN3z8S/ie7cDb4USkYA2uf/8r3B9ahbICJ4paSvD5s2O4/7slRsMrxM8rBO23eYo3/Nanv4TvX404bQk3nCe7/N1aeIVH3b4Eyx3ZaOqpx/hPLeivDOR78niW4K32AlQqk8iy0fQ7Ie7mMPSy4TFgV9qCtiADc5eBFBRZda9Y73X5XW2Y4eL0QlTPyzEEbSYrw8k//wq+v24IG/Zy4YVahLjsagt8j7egTBNRVTxXBcI5sgPjPzXhvShENliAl+DK42O4f9Us5uN/nDyegI024I7wmI/M3QoUsAVtQFuQATIQzEAKiqwQ1AmYNlN3hBFZi1DNJCSRiKzyzlaZECUP9R4zCW+QQEYtsgUYfmYJX4tTfoc7eTxiElc9vnr2K3j/pYdHkZ1JZhhWcCNFm9AmycwARTaGIhvJcLEispLXagfT5OKnVsKg+4y8qSIre61TiadJDH//dADXewrQUJONNAc9WTs78hxFgQyQAZ2BFBTZM/jsuwmMX2sODK8WXMEj23eyTqRllKAuRsPFaRFMfFKGi//ViO6C0FAGiWdYT1Ya7jVEVp3U5PtiLZZL53QI9ONk8Yjr5uFviqxuOx5D80vb0DZzmYEUFFknjt14Cv/EXVx2v4K0tftx+e7TWZn4JMAK/oTHhe4/NuHzS9qs3IISfP7PY/B+sQFNYkLR2jx0/7EeV6T3nJOJnw5w0x/ERKtatCvhvIi3WgIzf5efb4T3p0PG5CkxwWr49lbTpKzJ4mn/7JAS/smtWjr/LGY7/wqf/2YKjcjhjzH+wwT8f7uKljDCr+eNxynYmHYNdLRpC9pilhhIQpFVJzYZn/D4tc955FnGBR345CshrBPw//AEt9+7ivu2nuwMfcITtvAmX4zC9AmPWKxirB79/y3QqE4mfoYAFazCR4/1T2zaMf5oK96S0mb6hOdfh/DV7VK8JXnQk8Yjhy8+NfrDGpwUM53/uiGsh2ykT0pLWvdNrXxuoks+z99sDMkAGUghBpJQZAPiY9t4p1DhpHb+3sNt4cneeQ/5LDM2qmSADKQoAxTZFC3YhBfoNg+8/qf47AQ7TQlfVqwjFEAyMGUGKLKEZ8rwTEccdl17DP+XV1BO+8+K/adTdnyWHUMyEDkDFFk28mzkyQAZIANkIEYMUGRjZFj29CLv6dFWtBUZIAOpygBFliLLHiwZIANkgAzEiAGKbIwMm6q9MuaLHgcZIANkIHIG5rDIlqK8/BX23tjJIANkgAyQgZgxkHQiO/lespH1MEQ45p16InvO6MEdFp+gBPa1NW9IEGVYEQJ+6s8H8A+7fWsjfN5IewrdT5vEhrVUZIV5IiuzwUDSiaxhpP67tnvJGtcnEZJpi6wRvroCVTxEdv//eDOMyE6+slSktgl/nwsfPf4VPv9tYlTY8DZJjDSGtyfTSPuQgVRmgCJriOVUQY+zyP5XOXbapDl4jeRV6L9di/dqppqvUM+pO/rcuRTqenzPKyIbwiapXHGZt/hyRnvT3lNlICVFdv2vPRj3BoZyfd/cRM8OMySKJ3vjinmN4wt1pnH5fPd7uP2NvgbyUzy63o2qIIGLQGSdZ+FtGgF+0YnWoOfN6QpXkKUDu/GPL9aa0qjcH8FuP+I+09rF37dg+DeBDQTEdbF28Z3LLvTfEwv/H4PvX4dw53d5Rnz2e9/uDto8Pnw8YueeJvT/t1Lc+bZdjef7JvS3BOyw7jc78NUz7dpPx+D9th7dIToLIW0yDTuHKwNeC5QTbUFbkIHJGUhJkU2rPIwjB+vwqmhoxS48X04ErS6kvNv94TE+7dyOfEcpjl1/Ar//AS5XakYrEFvmPcWjjzpQXuDEq83v/X/tnf9TlFf1Jqm6AAAgAElEQVSe7/8dimQnm7q7XWtZE1dhpmt2jd9uJzNFDLroRLyOqNEQOlhhRUGJ3IyOVtyYIRWKlImkJExlWC2hsxcLEUi2B0rKzmCaJWXLNTaw9mNRPuGX973n+dLP1/4C9HfeP1Dd9PPlnPP5vJ7zPp9zznMOxqMSwr374qKjApaGyP78CmT/MFD3R5zLQuWfzr61my4eQPSpH71t67GpfB3qO+sQWfKjWy+vJrLRp+/Gd+o5Lhb/f3YYH1jynDySTZ2OENnTiM4eRpd/Hcq8lQjMtiN2d4dh15pKnDz5ErYq/tuI7nAbYuHXsdOSj9RwswKgjcgAGcg3A6UpsvbK2GX81jEm672KkCwhdEWFssLlmuqvpiBP99mWAkxDZMs9qPzZDux+LjvAn/v2tG2fV2c6jh12ytejd6Yd5o3c1XNM+9G67lubXGRTpyNE9hQCbUYelQj5r782RNbuvy/qEZuvtWzLl+8Hh+kb/qMtaAsykJiB0hRZXwt6gjOILmhdvWIWsHkrvHIPHCJbroqlPuO4VYlsjS7n+NZ6tvuUadflYuJTIpBTi6wqjEoXsOgGNv1Fbnvj4uYQyGWLbDrpODd6d4isz4vu8UZEnhhdxhTZxA9xIi74O21GBvLPQAmKbBMGHkqQH42gs7kBe8UG5i5RaVoi64ha3RyWXiSbTdhTdxer4meOWt3ykymRTZ5OKpGtxHXRffz4ADpObkSN8B8j2XhDyM1v/M3tueRv5KIwGChBkdW6fbtNBk5HZL29CNu7ixeD6DRtau4ObXoiu/2FV7PWXVyWxsQnIaCxu76km6svR2RDPSb7mrp3U6eTSmTF8XZYZi9TZCmyJsbcn0N3Hnku7ZJvBopXZC+MICZPoe/NLSjz7sPe+OpN5zG6ICE6cik+YWn0kQR5IYjLJsFUJj6JaLehCmXeBlwOzkKWTOd4OzAuSYhNXIVfRFO+JnQOBdHXYod2H/qmJcSCHcpEq2212oQrc6WQ5YlPAiLnKzyV6Lhdj7Ev1BnEmz4+jOjSqfikpq3+HQiM77KMc6Ynsh503BUTkapwyOvBpl2VqD9q2CR1OqlEdjOGnrQjMroZO70eiHwOPW5H7EkdPjD5L90Hp/rKJGKy6h9uDm/4KV378TzajAysjoHiFdnyg+gUwqituiREVYeh4kw/wgvaeGp0CgMXLuHWQwmhbmMZRSGy4SHTeQtTGDhjHBf3srzCI0uI/hBET5P1HOU8c3rSJHoO2JySoVd49PK5f6ZejMLyas2zU5ger8Jxk3ClK7Jl+30Y01+/edaGyLc78IqpUZE8nVQi68Gmtj0IPdHGjuf9uH5xMwKzbdbo1pSeuz1UHyj71gpGHvbjSJrXJLsfj9nYpk3j9Q7ZIBtuDBSxyNKhbg7lbzYuGvoRkSVEAk2sDCmIZIAM5JwBiiyhyzl0uWwIVFybsr7/TH+XtL9zyRbTsjVo+Wy5PlsUWYLhCkapVCCXJyTERs6XdBlLxVcsB0WrFBmgyFJkKUBkgAyQATKQJQYoslkybCm2yFgmRhpkgAyQgeUxQJGlyLIFSwbIABkgA1ligCKbJcOytbe81h7tRXuRATJQigxQZCmybMGSATJABshAlhigyGbJsKXYImOZGGmQATJABpbHAEU2myL7fCNq3pjBn8/9hMCFnxB4fx4fvHIGf5PNNHlvtsjJABkgAwXDAEU2izC++Is7+OPRP+N/vrgVZeWv4Rc77uLPF57if/9ieS0hthxpLzJABshAcTJQZCIrdryZxa1rg4gsSpDFOsGfGN8/q1Gd8OqHg4hEjb1gY4+C6Kw1O+ggeu5LkO/3Yq8msnvFykDSJD6znOfB7k3dkBuGIf+mEZWrFuT3cab1J/xRbDiw6nvxHrQhGSADZKDQGShCkZUQm+zFEa+6xVzsfh+afLbt5mpa0Nqs7Ybja4oLarVZ2Gr7EJbnMN4hdvERO+7MIdR90CF+x/75K8A/DOx+D7vN1y/7+1Z4fvmf+LJ9Cof/jg9GoT8YzB8ZJQNkIBMMFKXIhpS9Yq3CKnbVUX93AcNlP1lhPP/NGcjREfQF5yxRrd2w21/Yge3LFlVTPnxTypjsjdMzOPNPtQ4ht6fH/022W43deS1ZIwNkIM8MlKbI+lrQE5xBdGEuvhWeHB1Eq8PYTRh4KEFenEKPrZs4k0L3N89vRdkLh7D15f/El+ef4oOXxRgthYQ2IANkgAyUOgMlKLKacIoN2ZsbsFeMfyaIZMtqexGW5hCTJISvObuKs+H8Nw7/hMDRaxRZNjLIABkgA2uAgRIU2asIybauY1eRVSc/xb65hCMJJj2pIrsBu/92ld3FJpAosmy5Z6PxxnuSKzJQmAyUoMiex+iChOjIJVR7PdjW0IXRRxLkhSAuew0nqLOJ9d8Oom9aQuy7q/HZxjqwK5/4VIP/uff/4kvzKzxJuourr0wiJkuIBTtQYRJlPR/8NHxHW9AWZIAMFAsDJSiyHlSc6Ud4QXuFJzqFgQuXcOuhiG63qN0zopt4cQ6hK/uM7pqGfkRk5wzjVb3C88JFvPP2PG6cVxejuNH2f/G/tzW6LkZxREzCkiXID/txhCJr+IW2oC3IABkoYgaKTGRLuPWmiLyESKCJD1QRP1DF0rpmPku4LuHzU1B1KEW2QICsEOPC8hR6tAU1WAmyEiQDZIAMFD8DFNkCEdnLExJiI+cLqgXGB7z4H3D6kD4kA/llgCJbICLLByG/DwLtT/uTATKQDQYoshRZRs9kgAyQATKQJQZyJrLZaCHwnmx5kgEyQAbIQCEzQJHNUuulkJ3OvLFSIgNkgAzkhoGci2zb9huQDwcQfeUEjj2Xm0ISJtqZDJABMkAG8sFAzkW27PkdOPb37+H7o8P4fhOdng+nM01yRwbIABnIDQO5F1mle/Y1DL4xjO8rclNIwkQ7kwEyQAbIQD4YyJPI1uFO3SD+sp5Oz4fTmSa5IwNkgAzkhoE8iWwLvvcHcMeTm0ISJtqZDJABMkAG8sFA/kS2YRAPvK+hkrN7+X4aGSADZIAMlCgDeRJZD479/Api/mHAz7HZfLSumCZb9WSADJCB7DOQJ5FtxL2jw4i92ojmFzO3ITqByT4wtDFtTAbIABlIn4E8iSzHZAlp+pDSVrQVGSADxcpA/kS2gROfihUa5psVHhkgA2QgPQbyJLL7cefgIO5tSJTJsxh4KEFenEFfQ6Jz+DshJwNkgAyQgcJmIE8im2oxig6ML0qQZQnjHYVtQAJO/5ABMkAGyEAiBvIjss+/jXuHki+r2DkhItkgOr10XiLn8XeyQQbIABkobAZyLrJt2wNAwzBiu95Hc8INAs7iVlRCbOQ83x0r0XfHWDEUdsVA/9A/ZCAzDORcZNNy3Fv9iMhT6KnJTCHTSpNixgYNGSADZIAMZJiBwhTZDBeSIsvGChkgA2SADOSDAYosBZ0tVzJABsgAGcgSAxTZLBk2Hy0mpsmWOhkgA2SgsBigyFJk2YIlA2SADJCBLDFQsiJb4d1CaLIETaZaym/8/N/w/f5ByG9144sCz2umysz7FFaUQX/QH9lmoGBF9nJwDrI0gsu2yvez79RFKsRCFXJ0EK2248JgrUOzkL+7SpF1sU22gUr//o24d2wQDzbX4dgLlfRVQfuKFXH6XNNWtJWVgZyKrCqQs7h1Rs+EvrLTJD6zVTKtgRnEfuh3FVHFid2TBSGyFW924Nb0rLI6lSL80ixC11qwzVaeVYPXFUxuj0ynl/X7vY2/HA7gzj/oLPBz1Yxk3Wf0EX1EBpbLQA5FtgEDD2cRjUqI3GxQI5fmQUQX5hCTnSKbsiCFILK1VxGSJES/6YK/WnRPV8H/ySDGb55FRaYrvCTlTWmrTOclI/fbizv/i3sJF6fvWNHSb2QgXQZyKLLqKk6RH2YgT6pduRXXpiBPBBGSZ3GrWXOaEBPRFaz8zeJWSwJnJhEdtbu4D5eHphDT1kCODF1CtUkcmq5NIirp6UiITvej1byEY8sgokoeJvGZ9ywGpufUPC0GtS7sLVCWfpzuw17TfR2G953HgCnSjU72osmeTnQQlz8cRHhBy8/DQVyML8RxFaG4PUz5/T8t1i7WFOkIm0SHOpLYpAU9383G7SUvziKcoLGwe1M35IZhyL9pRGWysqc49sWuYUQ3v2YtR4prHPbl+bQfGSADBcxAjkV2Freuieh1BBfLPbj4zRzCX/WpImsXU0XkViGy8hzCgUuo9nqw7cMgYvIMBt4yCXZDC9oP7VMizorqSxh1XcZRCNwsIj/MIiLudWYQ0fg4sNrVHb6WbILVQfRNa5Guz4OK6rPK/5blIkU5F+cUkb8oomFfF0KLpmhfhydJo6KsPHU6SsNDmjVs0iUaM1ab+JvP44ASkW9B9YURROU5jP7eZDMtL8f++SvAPwzsfg+79fwt9/P5N/GXgxRZNhqcfNEmtEkpMZBDkRWiJERTfIrKvQW3HokIVhUyR8S6WpG932vqsk2QhkkY3CdLaVHk/V41Cm7uR3i6H03iupo+hEUEbm8cmO5ZppRBRMKmh+bCCGJaI0MBSTlnCj2mc8TYdXTorLV1mkxk00hHKd+ybKL2PIS6TXk3lW37Czuw3fR/+g+F2OZwWBFpee8FtCVcv9o93fTT4fW0FRkgA/lnIIciqwvdFggRCV/rRVgRG1XIHFvarVZkLbOL9bQNg4sJSwOie9TUZeyckazl7ROXaDUdkbV0fRtdvbJ5DFoXSJNgLVtk00jH2Yiw22QLjnT0I/RozugyliUkEtnVPLyVP3sVx9a9jwdHh/HA+7K1MWGyw2rS4LUG67QFbUEG8sdAHkTWgyM3ZyBHZxH77ioqyhNETNkUWW8HxiUJsft9aH/rTaVL2SlCwil2ITI7Ko3uYiF+5qjVTUAyJbIp0nGWz1q2ig7RpT6H8PXzOKJ0oyfwi1sZVvibGJONbd9PkV2h/Vhxmp9HficPhclA7kRW31lHdIsqwqKPOyaozLMpsi73doqQcJhViKwQpzHxSUlnBgMNSZyvnGOdXb3sSDaNdJzls5ZNOR4fbxb5TeAXRRA2YPffrrS7WLfFBny1exgPfrmBIkuRJQNkoGQZyJ3IWsSkCnvfasBen6hwxdisLrh6BawLcZIxTzG2KU+h780tKPPuw15lwo56fSpBKavpRViWEO5twrbyLag+04ew6Db+wT5T2CpEVpH1oMzlFZ697b0IfTeozVRuwsBDCbKYLSzy592H1mtBjF7ZZwBlsYuaf1eRbRDb/81i9PdVyqtCe5ubTLOaU6eTyibVvVOQF6fQ01Cl5vP6FGKyhMj1g0ZetYogIxOfytWx2e8rTD5nReOwtYM52og2IgNFxUCeRNZasZpFRREDxysrbmJ7EJ1BYxGI6MiluOFTCYqouPZ+EkRUe70n9iiIzjO9CEmmdBTxM42jWqI8I/8pF6OwvVoTezSJgQ9NwpWuyJZvQetN45UkOTqFPv21J/HQpUgntU1M9hSznYNdaL02idgj56pamXmFR6z4FMAdj2FLCgptQQbIQKkxkDuRZesr3ggoNYhWVh6x4tMgHnhfW9W7titLmxUZ7UYGyEBuGKDIUvzzJv5vbLyC2FvidR5uEMAKLzcVHu1MO+eaAYosRTZvIptr2JkeK1gyQAZyzQBFliJLkSUDZIAMkIEsMUCRzZJhc91aYnpsoZMBMkAGCo+BnInsS//4T2wpUdDJABkgA2RgTTFAkSXwawp4tvQLr6VPn9AnpczAGhHZKmxTFr4obZg3mTYZKGVoWbbS5pj+pX9LiYEiFllt/eFvOtKIxFKs3LTKaPZ3//42fpQO4+PV3Kd+F6aX2hHq22gtzxf1iC21a38nEGh1ewB/jYmlRMfczudvy3uIt2Lov08h/B+/sPpmNf7mtbQlGVgTDBSxyJ7FwA9ziARsW8K5gptdkS27cthVZE/ePqGIY6hHF7WNuD4rBNNFEGt8GJs/hbHP1ycAL5mQJjump52hT+9GfHDbj8gzTfiftSFyrwrHM91TcHIPQk8Po8vVnxkqS9r3/gWuP6TILq9hkmsfMT36pzAZKGKRXY5BcyCy/30Af7BV2h/cbUNk/hRid3dowunDxNJpRJ+4iKztWucDk0xIkx1bjp1SnfsSuv56GrHHB9BxfD02lXuw1b8DgfE9OJnprurWWkSW6gtKZEP//o8JGkCp7MbjTp5pE9pkbTBQlCIr1jqW9fWNXdcUtq7DGx4KKovrOzdY34/B/cNA/Ve4+T9W4fBzb+DBwz3qZu4msez6azsiDxoRe/xbHBe/t9UiMnsYY/PtmPhcT8+LwLzeHdyO2F9/naAiTyak2rFPqzDxuE3tWn5Sj26/noYHr3xUi+l57dhSO6KP69Cx3zguHniRX9E1HbntRU1nXTxane5Xu7A3dR5GbMmPXtt19sri0Kd1iDzVyvTEj8BHL5nKJPJaj+5/TZRXmz30rvJ7PtM9RL7Xoe1rU0T9+Ci6/9VUHiHS87X44KNahJ5oeZmtxbka45x0bKKWbT2++OspjF0xrrWXmf/TNmSADLgxUJQiqxdEWfTeRWT9Yr9aSSygr+4oc3FIbCRgWvw/LoSNuHd0GGgI4M66zAMiRCvUU4WQEKYaD3b2+RH99nVFVCe+cKaniNyKRbYdsfnD6PKvQ5l3I3pn2k0RtAdlNZU4efIlbBVl921Ed7gNsfDr2Bm3hZofpYt7thHT2r1EnvS8isg8Fq5SIljdB/bPTRcPIPrUj942EemuQ70Q6yU/uuPiJkT2NKKzel4rERBd6PFoX7NLiki2ps+vRtRKedfj5A0/Yk8OoE0vj7j+2WlEZvbg3C5RZh8mnrVDbzAo+U7TJvYy8n8nu7QJbUIG3BkoQZFV90GNDpnHapN0Fz/3Mt74WTb2NFXHXye+EJ9tGPvYg657IoJVIzVduMxgrk5kTyHQZjhZEcuEgu1BmZhQNV+Lk7ooaZ/qOPIpDJ1T79Uxfhpjn4rv6xXhFlGuOc/276IM1nPU60J9+lizENk08ppUZN1suBlDT05j6KJmA+36blM3tjNvhr2UciSwib2M/N9mNxtDtA/tQwYMBkpQZIWgSgh1G4VMvvm6+bxMfjeEQAhX5HYVAvMiolV/t0RUWiW1OpG1jvM6RNbnRfd4IyJPjC7jhCI7uwf1joozHZFVy2bMhja6wQ3h1bq2TbOkHXkVaScVWXEP497m9OKNF5frHSKbpk1YYWTyueC9yNPaYoAi6xCTTAFgiGzZx4cRmz+hjBGKyNFR2WddZCvVWc1iwtLJjagRM4ETRG2ugqflL3V3sVpmI2p1s2WmRNYUtbr5MKXIpm8TVopufuRv5IIMpMNACYrsJYwuSIjcbDC6Nb29CLuOyXpQ9vwOHMxKd/EOjD3TukW9WuSljTvmXmTV9ONRnhClFYhsOhOflGj8ri/JuO3yRNbc3WsArfUGfF1p+NgutClFNn2bGOmyUqEtyAAZWB4DJSiyHrSPzEGWJtHz5haU+ZrQMzmXh4lPVjHZeWgj9osJOCKSvecy0Uef3ZtwHFWMObYjdGOjImA796uv0KjAW9MSv1kjUvXayOhm7PSqr90MPW5H7EkdPjCNWTqvs8Pk8grP/l+h+159fDx408eHEV0S7/tuVCZZqa/47DKN/abKq5am14exZ20I9WjlPV6JQ6a81ve/i9izdxG4qNphZ1sVxkZ9xkSulCKbvk1UG9ttYf2/+sokYrKEWLADFXbB5/+JG0O0DW1T4gwUociqE5vir/C4vcrjPYuBaSGsEuTFWYx39SHkGslm6BUeV0icYqJX1lYBFOe5jC+6iK35tZrY/AGci6frTMuahgeb2vYYr7LM+3H94mYEZtviM4dF3pQo1JQXS+Srp5XGYhSWV3iencL0eBWOxwUydV51O1nK+/RdDH20zlQh2V7hefouJr7eiho9nylFNj2b6HlJ9XlEzGgXvD3sxxE9D/w0+cvaKEllTx6nvUqFgSIUWcJXKvCVVDka+hGRJUQCTRQWNi7IABmIM0CRJQxxGEpK9HLs14prU5DlKfTE3wdmY5A8kQEy4AFFNseVMaErzYrn8oSE2Mh5Nlj4PJEBMmBhgCJLICxAsBFQmo0A+pV+JQP5YYAiS5GlyJIBMkAGyECWGKDIZsmwbDXmp9VIu9PuZIAMFBIDFFmKLFuwZIAMkAEykCUG1rDIVqG6egvBWi5YXk+S1ZzYgi6kFjTzQh7JQP4ZKDqRTb2XbHpGFfex7tST3nVxaFsGEdUXwnBsSLDMe6UpdH/49gR+dNm3Np6nNO5z6EYjYs8a0Vtvy6NYZjG+EIV1s4H4/V0WeIgfSyNtnmuz+Qps9rt/fxs/Sofx8Qqupf1Xb3/akDZcLgNFJ7LxAnZPQnbZSzZ+PEUltGqRjd9fXYHKuutPdkBs+o93XEVWWd1pSexdq6erbrMXW3KK5c7PDyMi9opN+D6nc0WmuE0LTGS3njRt/C4aCPN+BD5Wl2GM5znuJ902y/8U2/1Nf518i79Mppf0XlcOU2Qz4NOkNub92cOXQQYosqs2Zo5F9r+q8TtbnsXuOJH5U6aNz33qxuhPnCKbunIpDpHd1FaLyNJphG78St1VyLseJ3vqMPTFSxmvIBJt6JDalssX9JT3FCL73wfwBxsDKa/j+RnngjbPAt8lyGlJiuyrHw4iEpXUtWTFou2PguistQKhRLIjvdY1jj85aHkQK97swvgjfQ3kOYSHOrDXAUEaIuv5N0Trh4HfXkCj43prvpI9uFVfHsWPd32WPIrzFRF40IjY49/iuLi/EKDZwxibF5vEa/dXolBjjWTXdYmVvKUW2d6Pao11kGdrcc4UFb/yUS2m5409a6OP69Cx31xGcX+RD9EAeAkd4ye0bup3cd3ehZ3QVuo2ddFvNycdH9501Iexx1penp1C6LZpbWNtE4XI7a344LYf0WciT22Yvr3Z2GTA0oWu2+4EAifN5fEgVTrCPxM9lei+p5X12SlM/GmjyY9edP/1XS0P7YiJvPb/yr1s597Ag1UOGSRjjMesvqU9aI/VMlCSIltW04LW5oPYJippsQvPfQny/V5UmyptZWx3cQa3LuxDRXkV2odmrcviecWWeXMIXz+Laq8H2xq6MB6VEO7dZ6ocBYBpiOzPr0D2DwN1fzQt6p85eEUlHuqpQmhJbArvwc4+P6Lfvo6AENkv7OmoIuf8XT8vlci2IzqzB+fEjkK+rRh70g7LBvQ1lTh58iVlB54y30Z0h9sQC79uCJfiA22rugeNiNz9Nep9Is16dJn8kxTs+j2YXtK2EUx0jVfssqNGuvrOQ6LREfrT+rj/lG72pycQ+lrbnejTo4gtOcU+aSSbRjri+ujTd+M7Ex2/JXYQOowPTHmvP/mr+C5NOy8eQGTpFIbO6T7hZ1IeTHbkeWSl0BgoTZG1P3Qu47eOMVnvVYTEBKYrKqQVLtdUfzUFebrPItZpiWy5B5U/24Hdz2XjAVDHXye+EJ9tGPtY3Upv4nPTpvEWe6xWZOth3uM1qQCJdF33rVXzFntyAG1K3nwYe1KHDks+k9jq4gFEU4jyJpd0ReMjNmMIviKy4SpTxOjewEhWxnTSUa//VVzcy1KObSfyXRKbpGs7nmf4gbagLXLAQGmKrK8FPcEZRBe0rl4xC9g2ScohslpEqs84blUiW6PLOb61nu0+6Yps9lpXRoUsRCNyuwqBeRHRqr9bokwFqNWLrDnidAiQz4vu8UZEnhhdxrH5WtN+skIotLwl23Q9GfxpiKw+GcyYMa1195ryopxj2VJw+SKbTjoOG7mI7KGP92Di8Wmjy3jJrReCIpu954i2pW2zw0AJimwTBh5KkB+NoLO5AXt9/99wLlFpWiLriFrdnJBGd3EywVj1MUNkyz4+jNj8CUQ0IXFU7lkXWXWsNPb4ADpOblQnJLlElLrIJu6ydrOz6bc0uosV8TNFrW4VSMZENkU6Dj/YRFbd6F7t2j50SGxCb/Lpqvkw2Y33YuRGBnLOQAmKrNbt222qXNIRWW8vwvbu4sUgOuObjZvuZwE1PZHd/sKrWeou3oGxZ9r4pFeNUmN3dyggOSp3Jd/ZjGRd7p0NkS1PPfFJ6cZ9dhgdSfy3PJE1dfea/J9OOg4/2ERWyYcpwl51I8SUP7fGBX9L9Czzd7KReQaKV2QvjCAmT6HvzS0o8+7D3vjqTecxuiAhOnIpPmFp9JEEeSGIy6YKV5n4JKLdhiqUeRtwOTgLWTKd4+3AuCQhNnEVfhEN+5rQORREX4vdCfvQNy0hFuxQJlptq9UmXJkruqxOfLJ2ce48tDE+gabrXrvptR493y5CaM5ruZgw1I7QDfV90537RWSlXWsTB/FAWgVEvTYyqk0k8u/A0ON2xJ7U4QOT7TMhIm6v8NR31mJi/NeoEfn17sDY03ZElYlVwn8b0XG7Dr2tuh08SFdk679+F7H5A2hTOHgJx/2m14TSSMdqIw/sY7I7/+RH7Fk9uv3rUCZeRbrhR3SpHdM3TOnoPkj5eVbtyVmcQV+DUVZWnrQFGcgPA8UrsuUH0SmEUVt1SYiqDlHFmX6EF7Tx1OgUBi5cwq2HEkLdxjKKQmTDQ6bzFqYwcMY4Lu5leYVHlhD9IYieJus5ynnm9KRJ9BywOTNDr/Do5bN+WkXWfMwiIiKijK/opL+O4j7uV9NZh4jySotY4OGAMSM6pch6sKltj/F6z7wf1y9uRmC2zTTLWRV5Iy/LmFVsE5hUi1FYXq1ZakPkQR26/9XwjcU+yr0T2NL7K1yfOaXZrw2R8C71VSktP6nSSSWyZeWmV5metSEy7sPJnqOIPraPZRt5N/vZ+r0D44sq++Md6ZzPc6z2oz1oj8wyUMQim1lDECzas1QY6JyQIKc11EGfl4rPWY7CZZkia4uOCGvhwkrfpOMbdY5AbOR8vGeHdkvHbjyHnGSHAYosRZaVcVyItFwAACAASURBVCkx8FY/IvIUekyrcLHyzE7lSbvSrukwQJEtpQqWZWGDgQyQATJQUAxQZAlkQQGZTsuQ5zCCIANkoFgYoMhSZCmyZIAMkAEykCUGKLJZMmyxtLKYT0YEZIAMkIHsMUCRpciyBUsGyAAZIANZYoAimyXDsmWYvZYhbUvbkgEyUCwMUGRzIrLNOPnuPP7wcg1bizmxNyugYqmAmE+yWuoMUGRzUOn/zda7uPH+XbzxPB+oUn+gWD4yTgbIgJmBIhNZsZrNLG5dG0RErM8q1gn+xPj+mfYC/qsfDiISNfaCjT0KorPW7PiD6LkvQb7fi72ayO69NqXc7zPLeR7s3tQNuWEY8m8aUbkiQT6Ed47/hO5/aWYUuyL7mf3G7+aHl9/JAxkofAaKUGQlxCZ7ccSrLR93vw9NPtt2czUtaG3WdsPxNcUFtdpcydf2ISzPYbxD7OIjdtyZQ6j7oEMIj/3zV4B/GNj9Hnabr0/3+y/+E39+fwqHXyx8GPjA0kdkgAyQgcwyUJQiG1L2irUKq9hVR/3dxUAu+8kKkPw3ZyBHR9AXnLNEtXbItr+wA9vTFVXLebV4652f8Of9F1Xx3ngHX7bewVbLOS755XFHY8fuE/5PbsgAGSgGBkpTZH0t6AnOILowF98KT44OotUhXk3a3ptT6LF1E2fEeRvu4MvzM3jn77SHwTeFAEWWAurgkJVlRp432pXPVgEyUIIiqwmn2JC9uQF7xUbbCSLZstpehKU5xCQJ4WvOruLVPvhb35hH4MJPLn/zOLOBFetq7cvryRAZIAOFzkAJiuxVhGRb17GryKqTn2LfXMKRBJOeVOdtwO6/XWl3se0BYCTLlnYBtrQLvZJi/mz1CBkqqnqkBEX2PEYXJERHLqHa68G2hi6MPpIgLwRx2WvAqs4m1n87iL5pCbHvrsZnG+sP9qonPpkfiCQiW31lEjFZQizYgQrzNfxeVA+Uzg0/jWeNtqAt1jIDJSiyHlSc6Ud4QXuFJzqFgQuXcOuhiG63qBW26CZenEPoyj6jAm8Q+3A6Zxiv/hUe0wOWRGSPiElYsgT5YT+OUFgNv9AWtAUZIANFzECRiaxJsIrY6K6tOkXkJUQCTXygSs23LA+ZJgNrlgGKbIHAXyHGheUp9GgLargKcYHklXkr4cYeGVuzYsDnOjvPNUW2QCqVyxMSYiPn+YAXiD9Y4WSnwqFdade1xgBFlpU6hZ0MkAEyQAayxABFNkuGXWutNZaXEQoZIANkwMlAzkSWxncanzahTcgAGSADpc0ARZaRLLuJyAAZIANkIEsM5Fxk27bfgHw4gOgrJ3DsudJuwbCFSv+SATJABtY2AzkX2bLnd+DY37+H748O4/tNa9v4fPjofzJABshAaTOQe5FVQvLXMPjGML6vKG3j8uGhf8kAGSADa5uBPIlsHe7UDeIv69e28fnw0f9kgAyQgdJmIE8i24Lv/QHc8ZS2cfnw0L9kgAyQgbXNQP5EtmEQD7yvoTJLM7oI9toGm/6n/8kAGSgEBvIksh4c+/kVxPzDgJ9js4UAAvPACokMkAEykHkG8iSyjbh3dBixVxvR/GKGNkRnRMz33MgAGSADZKDAGMiTyHJMli3GzLcYaVPalAyQgUJjIH8i28CJT4UGA/PDCooMkAEykFkG8iSy+3Hn4CDubUhUmLMYeChBXpxBX0Oic/g7HwYyQAbIABkobAbyJLKpFqPowPiiBFmWMN5R2AYk4PQPGSADZIAMJGIgPyL7/Nu4dyj5soqdEyKSDaLTS+clch5/JxtkgAyQgcJmIOci27Y9ADQMI7brfTQn3CDgLG5FJcRGznOmXIHNlOMDXdgPNP1D/5CBwmIg5yKbFgBv9SMiT6GnprCMlVbeKYpsGJEBMkAGyIDGQGGKLAEloGSADJABMlACDFBkS8CJjLDZ40EGyAAZKEwGKLIUWbaWyQAZIANkIEsMUGSzZFi2KguzVUm/0C9kgAzkkoGSFdkK7xa2zHLQgNjmq8qvnV94G4O7bkB+kxtN5LLiYFoUKjKQHgMFK7KXg3OQpRFctgnFZ9+pi1SIhSrk6CBabceF41uHZiF/dzW/lb9LvooDyg6MSxJi33SkZT/hj+jQ2bTOzUb5P64aBGou4Bw3msibD7LhV94zvQqcdip8O+VUZFWBnMWtM7ph9JWdJvGZTZRaAzOI/dDvKqIKWN2TeRdZRcyF2Fv+ZnGrRS9fgX029yMsBR22tj6oZzHwwxwigfSEM98ie+nVQcR21FFgbM+P1acFxiHzSl7XEAM5FNkGDDycRTQqIXKzQYWseRDRhTnEZKfIpqwkCkBk43kUeVlJGXINWssgohnOZ75FtnnrDWBXCyutXLPE9MgcGUiLgRyKrLqKU+SHGciTalduxbUpyBNBhORZ3GrWWtuKYOnRYZKoMKXI9uHy0BRi2hrIkaFLqDZB0XRtElFJT0dCdLofreYlHBVBEscn8Zn3LAam59SIdTHo6MIuSyiyVxGSJ9HT1IvQIy2thUn0xDc92AJl+ciJLlSY8lYh7rcQxOV4fqrQHphCVCuL/Ejc0zzmLNIR9xf2OojO4KwWXc9g4C1hV9X21ohbivtBbyyoPQ1aPhN0xe/9JBjPR2x6EOM/WLuLU9pVL6fn3xCtHwZ+ewGN+m8r+azoBt64gGMruZbXpFVJ6Hzwkz0CZGD5DORYZGdx65qIXkdwsdyDi9/MIfxVnyqy9i5WReRWIbLyHMKBS6j2erDtwyBisi44mpEaWtB+aJ8ibhXVlzDquoyjEK9ZRH6YRUTc68wgom7ik1Rk5xB7GMRnDVUo87bglthdaMIY76z4JGhbo1kV3tg3l+IV4N6vpiA/GkGnco99aL0+BXlhBO0WkTAaMdGJq/D7VIG3dMOnGckq3eBu5WwQK3HNIXy9BdvKt6D6goiMrSJblpZdPSj7+RXI/mGg7o84ZynHciCuxDlfgCK7Yvstx9Y8lwJDBlbCQA5FVoy/CtEUn0LwWnDrkYhgVSFzjGOuVmTv95qiwwRpmCon98lS4joJ8v1eNQoWY5rT/WgyXacYPanImseg3SZlqePSxm5D4v85jF7QgVbFM9RtjlwvYXTBfI44V4tW4+LbhfGFIDrNeV2lyLqJb6ruYne7qmWr/NkO7E64frVefvdPZQ1sIdJHv8LNf9gQb5Cs5CHgNe42pl1oFzKwegZyKLK60G2BqJjD13oRViJaVcgMkdEKtVqRtcwu1tM2DFbxZgcGvptFzNRl7JyRrOXtE7PAGfeIA5hKZE1RupvoXBY7DunRbUfQFqWqeXB09coSQt3mvGiRbKApseCsUmSV7mSLXT2KL82zi9OzqznfK/z+3Ms4+GIdbv7LIPAv72G3uTHB74kZoG1oGzKQUwbyILIeHLk5Azk6i9h3V1GhRWBWwfCgLJsi69VeU7nfh/a33lS6lN3Er6zcKc5xYTWDukqRLRPCqo31ii506+5DIg/2qNVNmPSI1+2Y9lu2RTZtuybJo9mu6XwXY7IH/4i2dM7lOTmtXFyfFfqAPlhjDOROZPWddcRkHqWy12cZJxCHbIqsy73zKrLlehex1g38e7MIpRGhKtAmsKMZaKXcU+iJT6gyp2N8V2zhMiYrGgDyw34cid9zC3rum8Zk07armtb2F15dcXexXoFX/vJLYPd7qIznySiHfg4/aRMyQAbyxUDuRFapgPVXdaqw960G7PUJx4uxWV1wTSC4VNgWI10YQUyeQt+bW1Dm3Ye91UaXrlMwbRFpTS/CsoRwb5M6gedMH8Ki2/iHPuy1VNa26yzHTHldbSSrTQKLPZxBLD6matzfLyL/xRncuiAmam1B9ZlejI9ctcyW1sdkHT0C5jx7uzC+KLrqG9T7HG/CERfBTSSyZb8XNp9DSLm+Cv5rk4iZJz6lbddMTXzyQBmb5Ss8jI7MnPM7eSggBvIksoaACOE0T55RKnjL4g76qynWa8rKza+qSIiOGLNxU4psuQeWV1EeBdF5phchyTSbWRF57XUWkR+XyC51Xp0i7cybVi6l0WCKCi2Q2F7hkWYRCnSYGgQiHVNek7wLay63LM1i9MPd2gOpRsKOsV9Lubeg9abxWlQ02IU+24pP5vvH3OyqlytDr/CIFZ9i2/ezUtHtyk+yQAYKioHciSwdX1COt/QKFLFvxIpPorv42ApnKZeKHVgOeyOc/5OJwmCAIlvEAsOHyIOyF07g3oFhwM8NAshDYVSq9AP9YGaAIkuRZYRNBsgAGSADWWKAIpslw5pbMvzOli0ZIANkYG0yQJGlyLIFSwbIABkgA1liIGci+9I//hOdmCUnsoW8NlvI9Dv9TgYKnwGKLIWPjR8yQAbIABnIEgNrRGSrsE1Z+KLwWz2raZlucllYYjX347VOXjb51mFTlh5G2ttpb9qENil2BopYZLX1h78xto1L7AznohCJz10+1L/797fxo3QYH6+m8q3fhemldoT6NlpblF/UI7bUrv2dQKDVLX+/xsRSomNu5/M3s/8P3WhE7FkjeutT2+Xk7ROI/fXXVh+l6fc/fHsCPz7c49zFKc3rzXnm99S+oo1oo0JgoIhF9iwGfphDJHA2jQovuyJbduWwq8gqFbIQzh4d9o24PisE00UQa3wYmz+Fsc/XJyhPMiFNdkxPOwOfrbWIxAVfF/52RG57E+Q5A2muSoAqcX3mNMY+T56PnZ8fRmT+MLpqkp8nHtjViGzTf7xDkV2VP1P7pxAqVeaBfjIzUMQiuxxH5kBk//sA/mCrQD6424bI/CnE7u7QRMiHiaXTiD5xEVnbtWYnqd+TCWmyY8uxU7rnivTaMfFFuufn6zwvAvOZzeeqRfa/qvG7lL7Ol72YrvO5o01ok9UxUJQiq+xrqq/Va1lbVzeGaV3jxTmEh4KIyKZ1ieOV3H4M7h8G6r/Czf+hX7uCz3Nv4IFLN2DXX9sRedCI2OPf4rhIs60WkdnDGBMVfzy6UoUg3iWcsCsymZBqxz6twsTjNrVr+Uk9uv1GWV75qBbT89qxpXZEH9ehY79xXDxIIr8iHyIyremsQ+SZ+v90v60LuzyxyAoRitzeig9u+xFVrm/D9O3N2KnZvP7rdxGb3YP6uA88KFMi5Eb0mvJz6NM6RJ5q0fITPwIfvWSJllPlVe9FiNtVicCPosuRrhGRuzUaNrXtQeiJds7jowjcO2XtLn5tBwIPThld+k/fxVinNa96JVX15VH8eNdnKYd+jJ9WFmkP2qNUGChKkdWNryy27yKyyq410hT6mquUHXouDs1CdhXZRtw7Ogw0BHBnXeahFkIQ6qlCaMmP3hoPdvb5Ef329YTRlSIcKxbZdsREl6d/Hcq8G9E7026KoD0oq6nEyZMvYasQGd9GdIfbEAu/Hhc/3aaKOM02Ylq7l8iTU3ySi2zs6QmEvt6MnV4Ptn56FLGld3FdH+/078G0+N/UAFCEd8bIy6aLBxB96kdv23psKl+HeiH4S35027pzU+c13Ug2QXm8OzD2tB2Rb3fgkCiLvwoTQvgtPlqP421e1CgT69ah/k9iDN2ZV92+/Mz8c0ab0qaFzEAJiqy6m0x0yDxWm6S7+LmX8cbPNmQhulDHXye+EJ9tGPvYg657IoJNXPGvTmRPIdBmPGyKAFnEwDimACkmVM3X4qQ5stPHHJdOYeicen7H+GmMfWq7NkUkGwtXmWbgalF2fMKWahcjOlb/D/UZY9HCDtZx3vVKo8F8jiiDGq0my2tiW1sfSneR3aRMOqtHl2nWdkq7KrZZyXCA3cb83+oj2oP2KE4GSlBkhaBKsO6rmkRkbSKTOZCNCl5UzJHbVQjMi4hW/d0QGQOc1YmstWJ3iIHPi+7xRkSeGF3GCUXW3p3rsJG7KAnbOdJ1EZ1D/WqX8SFx33oR2ZojP9U+1m5etbvWKrxaWknzavgguV/dy6OUxdYQcZZvHY731GF6/rTWPS7yavVF8rQN//M82oIMlB4DFFmHgGTKyaYK/uPDiM2fQESrsJ2Rmppm9kS2Up3V/PgAOk5uVLs2k0WyySJgxV7uoiQqCKcIiXNtoqMIq9qFLLrQrd3Wqt3sUatb5eNMy+47kw+S+tm9POmIbL1oMCydwFCnF4f2r0OZS6PCLe/8ze4r/k8mSpOBEhTZSxhdkBC52WB0AXt7EXYdk/Wg7PkdOJiV7uIdGHumdeF61Upcn2Wce5F1EZF8imy53kWsjh2H/mR0FYuKRmls3PWZupzdH750RdZ4hcr9PqowOseelQbAs8P4wCTQJ29bJz45G0YujQrT9axIE/mAv5ON0mSgBEXWg/aROcjSJHre3IIyXxN6JufyMPHJWtnuPLQR+3epEImxWV1wzQ+Ws8I2Q7cZQ0/aEbqxURGfnfvFpCD9uDUtcU+rAKnXRka1yUj+HRh63I7Ykzp8YBpvdF6n39/+6SLaWl6s6YrrnHkT6SgCNvuuratYTWfTx4cRXRLvDG9UJmpt9e9AYHyX+/hxiqi7466Y4FWlTFzatKsS9UftZdHz6BTZsprXEVJmW29W8rHzYi2mxYxpU5pto6cQmz+Ac8K3vo3o+PYEYkunMfaRWzopfmvpR2RRgvxDH/xx36a4hucZjWnagrYoQAaKUGTViU2y/gqP/mmeZew9i4FpIawS5MVZjHf1IeQayWboFR5Xx7qLi1PIVMFyjEGaKnJxjfgzv1ajVOzxdJ1p2cXO8irKvB/XL25GYLbNMnNYEXnTYhOOWcVpLEZhTzeRyOoCJgTLaCwYgmJ5hefZKUyPV+G4qUGQMq+6bfb7MKa/1vSsTZkp/Ip+TJnYZLzCo/vAXG6zzaMze9BtX/HJ+ytcn9Fe4Xl2SplVfe7Wu4oQu5VL96XrZ0dQYzaIy3oe+UnhIANFzUARiqxREbtWVASyqIFc2z7twriIZCe6UEGOyTEZKAkGKLIEuSRALglxPjOIqDyH0d+zIVkS/mTdwrql3AOKLB8EPggFwsCRmzOQ7/eiukDyQ6FjY4cMrJ4BiiwrNIosGSADZIAMZIkBimyWDMsW4OpbgLQhbUgGyECxM0CRpciyBUsGyAAZIANZYoAimyXDFnvri/lnBEEGyAAZWD0Da1hkq1BdvYWtt+U2Mrwe1/da+TCu/mFcng3XYauy80+u02V6y/MT7bXW7VV0Ipt6L9n0oBb3se7Uk951cWBaxOsWkrp4gGNDgmXeK02h+8O3J/Cjy7618TylcZ9DNxoRe9aIXn3rOf0ay8IMtrWG9XOUxSjqrXuy6sf4mYEG21Zla73ot1vTuJdzAZK0OThajZB0CmNXssNp2vkgM2n4mT4qdp6KTmTjBu+ehGxe5WmZD+yqRTaenroClXXXn+w8GE3/8Y6ryCqrLC2JvWv1dNW1gd12g9n5+WFExF6xtr1Z43ZNsAyicryARNa+4pO6WlMBNwA+rUP0wR7H0pCG3YXvvLj+4DSmv/amUfmuQmTLfRijyKZhY/154qeVU9pjOfagyMbFcqXg5Fhk/6sav7Pl+YO7bYjMnzKth+zDxNJpRJ8kiEht11uBSVJ5F5DI6nlWGhi27ej0YwX1mWBDhpXnMYmfkvpXcC5E9gSGPlwp87xu5X6j7daa7UpSZF/9cBCRqNGVG3sURGetFW4lkh3pta5x/MlBS+u24s0ujD/S10CeQ3ioA3sdFVgaIuv5N0Trh4HfXkCj43prvpIBWPXlUfx412fJozhfRHWRB42IPf4tjov7t9UiMnsYY/Nik3jt/rZ1h83r81rTTFJ5ayLb+1EtQk+0NX9na3HOFBW/8lEtpueNPWujj+vQsd9cRnF/fc/Vl9AxLhbUF/+rW99Z82K+zv17QpEVeZ2vxQeJ8ur1YexZG8Y6rfcVtoyObzXGnX2bjbWJl9oQuWddQ7ksblexubt5HWN99x69vNY1kiO3Ki1+tETmro0Gk63EGsm36zBt20LweM9RRJ7q6bQhMrMHJ03rPRu2/Sd8/eM7uH7SWnbjOH+nLchAphgoSZEtq2lBa/NBbBOCI3bhuS85VtJRxnYXZ3Drwj5UlFehfWgWsjyFHl0wvGLLvDmEr59FtdeDbQ1dGI9KCPfus1SOZeVpiOzPr0D2DwN1f8S5VYhsIqeLCjrUU4XQktgUXt3hJvrt6wgIkf3C/rColb7zd/28VCLbDrFQvrrrzFaMPWmHZQP6mkqcPPmSsmuN2JWmOyx2wXkdOy3lVvd5nX7QiMjdX6PeJ9JcWVdvUpF9dloRGjWvPkw8s+ZV2aHHvKWeIrynMXRRt8VL6J1pVzYVqPd5sGnXr9A704bo6GYbA6rNph+cwPTXm7FTNHLsQplmJJuoPMq+tU/96D25DmXe9TgnNiqwiWyZ34u2Q+ruTJt2bcbQfLtLXvWy8TPR88TfyUYmGShNkbVU6P8fGJfxW8eYrPcqQmICkzYZpMLlmuqvpiBP99mWvUtDZMs9qPzZDux+LhvwquOvE1+IzzaMfeyB2Epv4vNEG5avVmTr0W2KjpQo+naSMURXcVHzFntyAG2Kr3wYe1KHDrvf0vg/kSipEWaKvH58GDHzfrHi/ycHjIaQFrl3mcpbdvEAouZzlDyqNo03Jk7uQWhmj9qroJfB1Q5OHtzLo9orYrGzKuyBVuc99ApCuZfLbk76cX4mth1tQ9tkioHSFFlfC3qCM4guaF29YhawbZKUQ2S1iFSfcdyqRLZGl3N8az3bfdKKZPWKNiufhpiKSjVyuwqBeRHRqr9bokyTIKw8krVGnA6R9XnRPd6IyBOjyzhmj+rKtbx9be0yXQnU7qLkgS6yXSabO/JavkPtMv5YrVDE2LYlShXCaNr6z/hutYG6nZ+z69lSnlWJrFvDyCmym47uwPW/vovoU5PtKbK2XgeKh4VL0/PB37PDRgmKbBMGHkqQH42gs7kBe8W7hC5RaVoi64ha3ZyQXiSbPYANkS0Tkdj8iXhXpVNURP7dKmxzuZyVdzzvemRnejCtaVTi+mw7Yo8PoOPkRtQI27uKiynPpnvF01nGb6sTWQ+EsMbu7kBZudjY/hSGzplsIfLuiFpNx+P5TGIz/RxXOzjv5V4eN5/Z0vTuUF//Ce9CW/1L2On1QLkXRZYiqzPIz7ywUIIiq3X7dpsqsHRE1tuLsL27eDGITnNXoSuk6Yns9hdezVJ3sYjGTiHQ5kGZV62MVdHQJkRZuhiFTdwqbJOtlvkKj1VkXe7tKi6FI7JKw0QIqdYNrHZfa/ZQGhXv4rrfbB+37zbBc+PE1Q7Oe7mLrGgAWMeTy7xiDN40e1zJq+n/corsShptvMbJJG2yOpsUr8heGEFMnkLfm1tQ5t2HvfHVm85jdEFCdORSfMLS6CMJ8kIQl02CqUx8EtFuQxXKvA24HJyFLJnO8XZgXJIQm7gKv4jIfE3oHAqir8Vu8H3om5YQC3YoE6221WoTrswVbVYnPlkr+J2HNmL/LjWPYmxWF1zjQXERQnNelYiuHaEbG5UZtjv3qxNplOtTRrKqGERGNyuR1Fb/Dgw9bkfsSR0+MNlevA/qPinLbtvU/7uLUrrdxeL+Is+nMT172tpVrNhEi8xnf6tO9PKux8meOgx9vt7WIrb6wLC1Kf/+Pcps4KFz61BWvg41ItK32F09N1F52kZPIfa0Ht1HBYsb0X3vtHXiU83rCC21IfSnjcqks51tuxASM40f7HJNxzWP8fzsw2eTYqhlDuMdXBUtua1MPo7bj7/RZgYDxSuy5QfRKYRRW3VJiKru2Ioz/QgvaOOp0SkMXLiEWw8lhLqNCkOIbHjIdN7CFAbOGMfFvSyv8MgSoj8E0dNkPUc5z5yeNImeA4aBlTxl6BUevXzWz8QVvKW7UERSLuOLbmOzNZ11iDzTXgWZd5kIZKpMrJGsB5va9hiv98z7cf3iZgRm20yznFWRN/JiH9+02c6UlrncIl3jHvp3071SNgiMdM59axMsc5qWV3jaEX1cj+sfvRRnzXiFR7dXbcIFJ072+xGN21XMFNbzoDY6HOUxj2VbXg86gbFPd2HCHMmWe2D2m/LqVFsVJp5ao1uzDRN/b1CHXGQJkZsNRlnNduF32oUMpMVAEYusXkHxM3FlSdvQNitjwB+YgSzPYKBhZdfT7rQbGVAZoMiyNZZWa4wPzFqqNLe4vltOBtYSAyxrpninyFJkKbJkwMZAB8YX5zD6e1a0mapoeZ+1yxJFlhWsrYJduw8DK0L6ngyQgUwzQJGlyFJkyQAZIANkIEsMUGSzZNhMt4Z4P7awyQAZIAPFxwBFliLLFiwZIANkgAxkiQGKbJYMyxZn8bU46TP6jAyQgUwzQJGlyLIFSwbIABkgA1ligCKbJcNaW0PNOPnuPP7wcg1Bzom92Rq38kd70B5kIF8MUGRzUOn/zda7uPH+XbzxPEHPF+hMl+yRATKQDwaKTGTFjjezuHVtEJFFCbJYJ/gT4/tnNSpEr344iEjU2As29iiIzlozYAfjK9rs1UR277Up5X6fWc7zYPembsgNw5B/04jKFQnyIbxz/Cd0/0szo9gV2c/sN37PRyXBNMkdGVg5A0UoshJik7044lW3mIvd70OTz7bdXE0LWpu13XB8TXFBrTZX8rV9COu7jCg77swh1H3QIYTH/vkrwD8M7H4Pu83Xp/v9F/+JP78/hcMvrtxJBJy2IwNkgAwUJwNFKbIhZa9Yq7CKXXXU310c4bKfrADWf3MGcnQEfcE5yPd7oUe1dpi3v7AD29MVVct5tXjrnZ/w5/0XVfHeeAdftt5RtiKzp8H/XfxmsSWPkxEyQAaKj4HSFFlfC3qCM4guiD0x9S3vBtHqqLSb1C29FqfQY+smzgjMG+7gy/MzeOfvNDB8UwhQZB29BRmxtcO3xfcw0g70GRkoPQZKUGQ14RQbsjc3YK/YcD1BJFtW24uwNIeYJCF8zdlVvFrgt74xj8CFn1z+5nFmQ+nBtFp78XoyQQbIQKkxlIISRQAACWtJREFUUIIiexUh2dZ17Cqy6uSn2DeXcCTBpCfV2Ruw+29X2l1se2AYyTKKZcRNBsjAmmKgBEX2PEYXJERHLqHa68G2hi6MPpIgLwRx2WuInjqbWP/tIPqmJcS+u+oYl131xCfzA5VEZKuvTCImS4gFO1Bhvobf19QDWWqteJbHqHNoi7VpixIUWQ8qzvQjvKCPxU5h4MIl3HoootstaoUtuokX5xC6ss+owBv6EZGdM4xX/wqPCawkIntETMIS48cP+3GEwmr4hbagLcgAGShiBopMZE2CVcRGd23RKiIvIRJo4gNVar5lecg0GVizDFBkCwT+CjEuLE+hR1tQw1WICySvzFsJN/bI2JoVAz7X2XmuKbIFUqlcnpAQGznPB7xA/MEKJzsVDu1Ku641BiiyrNQp7GSADJABMpAlBiiyWTLsWmutsbyMUMgAGSADTgZyJrI0vtP4tAltQgbIABkobQYosoxk2U1EBsgAGSADWWIg5yLbtv0G5MMBRF85gWPPlXYLhi1U+pcMkAEysLYZyLnIlj2/A8f+/j18f3QY329a28bnw0f/kwEyQAZKm4Hci6wSkr+GwTeG8X1FaRuXDw/9SwbIABlY2wzkSWTrcKduEH9Zv7aNz4eP/icDZIAMlDYDeRLZFnzvD+COp7SNy4eH/iUDZIAMrG0G8ieyDYN44H0NlVma0UWw1zbY9D/9TwbIQCEwkCeR9eDYz68g5h8G/BybLQQQmAdWSGSADJCBzDOQJ5FtxL2jw4i92ojmFzO0ITojYr7nRgbIABkgAwXGQJ5ElmOybDFmvsVIm9KmZIAMFBoD+RPZBk58KjQYmB9WUGSADJCBzDKQJ5HdjzsHB3FvQ6LCnMXAQwny4gz6GhKdw9/5MJABMkAGyEBhM5AnkU21GEUHxhclyLKE8Y7CNiABp3/IABkgA2QgEQP5Ednn38a9Q8mXVeycEJFsEJ1eOi+R8/g72SADZIAMFDYDORfZtu0BoGEYsV3voznhBgFncSsqITZynjPlCmymHB/own6g6R/6hwwUFgM5F9m0AHirHxF5Cj01hWWstPJOUWTDiAyQATJABjQGClNkCSgBJQNkgAyQgRJggCJbAk5khM0eDzJABshAYTJAkaXIsrVMBsgAGSADWWKAIpslw7JVWZitSvqFfiEDZCCXDFBkKbLZbcF6q7Atr69hbUDzL68genAQ8v4/oo3+zq6/aV/alwxYGKDIEggLEGm18N7qQ0SWEP6qIfW1LYOIypP4LF92fvECov4A7m3Yi4M/25A6v/nKJ9Olb8hASTKQe5H1NuDy0BSi2opO8uIcopO9aPJluAujuR9hKZi/yl15YK4iJKsrV4nVq+J/310tWJg6g3OIBM4mz1/NVYxHZzF+ZV/y84QN8i2yP3sfD/xf4quE72RnmDtWlKmZoI1oozXEQI5F9iA++24O8qMRdB7fh4pyD7Y1dOFWsB+tme5SzHflboFIXVwjOpRCvCzX5Kfy/+w7CRnNZ9790ILvuRkFK/UCeLbS6iViPkuO1ZyKbMUnQcjyFPpqkwlIFdoDpkj30SR6mraYDC+iQ/FbL0KPtOhwYRI98Y0EVEGLR416BDlpjx5TpCPEITqIyx8OIrygpfNwEBdNC2S8+uEgIlEjQo09CqLTtWxJRDZVOg1iYY4ZDMTLJ2yn3i9y/aBhF995DEzPxqNlpXfA1HBpHdKOfXcVFWf6jTJNdKj36J6MX2vYbha3ms2+stnWLSL3nsXA9Jx6r8VZhIYmbd3FLej5bhaxeE/GLMI3zyoNLmsl9DK+eG0QaBAbSaymmzfVZhTm8vG71Qe0B+1BBlbLQE5F9rJYj/h+r0uFajhy71dTaqTbUIUy7z60Xp+CvDCC9ngLT4jsHGIPg/hMOacFt8SOPbpY6OeliKBSpiOuF13Z0/24WL0FZb4uhBYlRG6axiFrWtDafBDbRJq+JvTcV8tXrech/plCZJOm06TsSBQJNBmCqgjvFPrign8QfdMSot90we/zoKL6rPK/Y1lKIaTRGUSiMxi4sA9CeO1Ra7qRrDhPdojsFlyeUHsqLr8pbNaEHtFzYRuT9TefxwFh0/ItqL4wgqg8h9HfGwyoUL+Gm78dBvzDePDLl42yx21qP9/9/8oX38ODY8l2fHK/brUPFq+nXckAGRAM5FBk96lCkLTLVBWjULc5cr2E0YU5jF7QHSZEdha3zuj/exSxcFT4SUU2jXSU66fQY4oGUwqQImKDaHUIQQqRFUtIJknnyM0ZyA/7cUS7r/L/dB/iYq6X1XSPsgsjiC2M4KI5L1q0Gu5Vx1Kbbk4hfLPFImApy6jdz1VkveoYtMV/et7M+bB8131h+NOonCrxxguVlvwZx9zON//Wgu/9qkjHftOIY5Y0zefxe/o2pa1oKzKwXAYKTGTVStrorjS6YkPdunM1kW3R/1+JyKaRjos4OATI14Ke4AyiC1r3qOiajq5EZK2zbx3pKGs5z2DgLVHmBiWy1YVScbhrV6+wnfW+ZeK8FDsbOdJOIE6uIqvYbBa3TL5xTnzagiMd/Qg9mjO6jGUJhn8Nvy4XZvv52194Dc0bOhFrCOAv6zJ3X3s6/J+2JQNkIBEDORRZD1J3FwvxM0etbo7LlMimSCelyKrduMokruYG7BWzo1ccyVrF0Cl0qrAqXdU1fQjbN08Q6dqjVjdxTJg/w87OtI1jZohWKrIVHUHE5DmEr5/HkUNi8luySNY9bXM+Un8XY7LD+L4iE/fiPVLbmzaijciAmYGcimzqiU9qhWsZf3SIxXJE1toNaxQ8jXRSiqwaDVsisIQipqZnH/9U8pMyHRVYvYvYL8as7/caXcXCPso97JOjXEBPmD/j3FWJrNIAkDDeYdyv7Iz1PVllApYl2k8iss+9jIMr7i7W81CHO3UB3PkH/X9+Gs8BbUFbkIFsM5BTkS0rd3mFp/Y8eiYnceuMOg7rF+OPizO4dUFEOVtQfaYX4yNXTaKSpsh6uzC+KCF8rUG9z/EmHDGNWaZMJ6X4ncfogoToyCVUe9VXkUbFbOeFIC6b0lEduHqRLVMEbAaRhxIsXcVKI0SLqsXsZzGhSEwYuxbEqP091jRE1h+YgRwdQbuIzH0H0dRgmsFsavC4RrLl+9TJX48Glesrqi+pk9JM3dbVvVOQF6fQY5rYFpMlWGZKK+lkZuJTWbkYmw3gjoeVSbYrE96fjJEBJwP/D0W+ZRy1ZAbaAAAAAElFTkSuQmCC;" vertex="1" parent="1">
                    <mxGeometry x="-136.98" y="680" width="133.96" height="162" as="geometry"/>
                </mxCell>
            </root>
        </mxGraphModel>
    </diagram>
</mxfile>